<svg width="13" height="12" viewBox="0 0 13 12" fill="none" xmlns="http://www.w3.org/2000/svg">
<path d="M8.5 6.45V8.55C8.5 10.3 7.8 11 6.05 11H3.95C2.2 11 1.5 10.3 1.5 8.55V6.45C1.5 4.7 2.2 4 3.95 4H6.05C7.8 4 8.5 4.7 8.5 6.45Z" stroke="#6B4E33" stroke-width="1.5" stroke-linecap="round" stroke-linejoin="round"/>
<path d="M11.5 3.45V5.55C11.5 7.3 10.8 8 9.05 8H8.5V6.45C8.5 4.7 7.8 4 6.05 4H4.5V3.45C4.5 1.7 5.2 1 6.95 1H9.05C10.8 1 11.5 1.7 11.5 3.45Z" stroke="#6B4E33" stroke-width="1.5" stroke-linecap="round" stroke-linejoin="round"/>
</svg>
