<svg width="13" height="12" viewBox="0 0 13 12" fill="none" xmlns="http://www.w3.org/2000/svg">
<g clip-path="url(#clip0_1_9778)">
<path d="M6.06881 1.63333C6.09039 1.59413 6.1221 1.56145 6.16062 1.53868C6.19914 1.51592 6.24306 1.50391 6.28781 1.50391C6.33256 1.50391 6.37648 1.51592 6.415 1.53868C6.45352 1.56145 6.48523 1.59413 6.50681 1.63333L7.98281 4.43533C8.01801 4.50021 8.06714 4.55649 8.12666 4.60014C8.18619 4.64378 8.25465 4.6737 8.32711 4.68776C8.39957 4.70181 8.47425 4.69965 8.54578 4.68142C8.61731 4.66319 8.68391 4.62935 8.74081 4.58233L10.8793 2.75033C10.9204 2.71694 10.9709 2.69744 11.0238 2.69463C11.0766 2.69182 11.129 2.70585 11.1734 2.7347C11.2177 2.76355 11.2518 2.80573 11.2706 2.85517C11.2895 2.90461 11.2922 2.95876 11.2783 3.00983L9.86131 8.13283C9.83239 8.23766 9.77007 8.33021 9.68381 8.39643C9.59755 8.46266 9.49206 8.49896 9.38331 8.49983H3.19281C3.08398 8.49907 2.97836 8.46282 2.89201 8.39658C2.80565 8.33035 2.74326 8.23774 2.71431 8.13283L1.29781 3.01033C1.28393 2.95926 1.28662 2.90511 1.30548 2.85567C1.32434 2.80623 1.3584 2.76405 1.40276 2.7352C1.44712 2.70635 1.49949 2.69232 1.55233 2.69513C1.60517 2.69794 1.65576 2.71744 1.69681 2.75083L3.83481 4.58283C3.89171 4.62985 3.95831 4.66369 4.02984 4.68192C4.10137 4.70015 4.17605 4.70231 4.24851 4.68826C4.32097 4.67421 4.38943 4.64428 4.44896 4.60064C4.50848 4.55699 4.55761 4.50071 4.59281 4.43583L6.06881 1.63333Z" stroke="#B45309" stroke-linecap="round" stroke-linejoin="round"/>
<path d="M2.78906 10.5H9.78906" stroke="#B45309" stroke-linecap="round" stroke-linejoin="round"/>
</g>
<defs>
<clipPath id="clip0_1_9778">
<rect width="12" height="12" fill="white" transform="translate(0.289062)"/>
</clipPath>
</defs>
</svg>
