<svg width="20" height="20" viewBox="0 0 20 20" fill="none" xmlns="http://www.w3.org/2000/svg">
<path d="M15.5585 1.6665H13.9752C12.1585 1.6665 11.2002 2.62484 11.2002 4.4415V6.02484C11.2002 7.8415 12.1585 8.79984 13.9752 8.79984H15.5585C17.3752 8.79984 18.3335 7.8415 18.3335 6.02484V4.4415C18.3335 2.62484 17.3752 1.6665 15.5585 1.6665Z" fill="#C28E5C"/>
<path d="M6.03317 11.1919H4.44984C2.62484 11.1919 1.6665 12.1502 1.6665 13.9669V15.5502C1.6665 17.3752 2.62484 18.3336 4.4415 18.3336H6.02484C7.8415 18.3336 8.79984 17.3752 8.79984 15.5586V13.9752C8.80817 12.1502 7.84984 11.1919 6.03317 11.1919Z" fill="#C28E5C"/>
<path d="M5.2415 8.8165C7.21592 8.8165 8.8165 7.21592 8.8165 5.2415C8.8165 3.26709 7.21592 1.6665 5.2415 1.6665C3.26709 1.6665 1.6665 3.26709 1.6665 5.2415C1.6665 7.21592 3.26709 8.8165 5.2415 8.8165Z" fill="#C28E5C"/>
<path d="M14.7581 18.3331C16.7325 18.3331 18.3331 16.7325 18.3331 14.7581C18.3331 12.7837 16.7325 11.1831 14.7581 11.1831C12.7837 11.1831 11.1831 12.7837 11.1831 14.7581C11.1831 16.7325 12.7837 18.3331 14.7581 18.3331Z" fill="#C28E5C"/>
</svg>
