<svg width="12" height="14" viewBox="0 0 12 14" fill="none" xmlns="http://www.w3.org/2000/svg">
<path d="M7.33325 1V3.66667C7.33325 3.84348 7.40349 4.01305 7.52851 4.13807C7.65354 4.2631 7.82311 4.33333 7.99992 4.33333H10.6666" stroke="#767676" stroke-linecap="round" stroke-linejoin="round"/>
<path d="M9.33325 13H2.66659C2.31296 13 1.97382 12.8595 1.72378 12.6095C1.47373 12.3594 1.33325 12.0203 1.33325 11.6667V2.33333C1.33325 1.97971 1.47373 1.64057 1.72378 1.39052C1.97382 1.14048 2.31296 1 2.66659 1H7.33325L10.6666 4.33333V11.6667C10.6666 12.0203 10.5261 12.3594 10.2761 12.6095C10.026 12.8595 9.68687 13 9.33325 13Z" stroke="#767676" stroke-linecap="round" stroke-linejoin="round"/>
<path d="M6 6.3335V10.3335" stroke="#767676" stroke-linecap="round" stroke-linejoin="round"/>
<path d="M4 8.3335L6 10.3335L8 8.3335" stroke="#767676" stroke-linecap="round" stroke-linejoin="round"/>
</svg>
