<svg width="12" height="12" viewBox="0 0 12 12" fill="none" xmlns="http://www.w3.org/2000/svg">
<path d="M4.88676 9.06219H0.686279" stroke="#767676" stroke-linecap="round" stroke-linejoin="round"/>
<path d="M6.76025 2.60028H10.9607" stroke="#767676" stroke-linecap="round" stroke-linejoin="round"/>
<path fill-rule="evenodd" clip-rule="evenodd" d="M3.81761 2.56417C3.81761 1.7004 3.11217 1 2.24218 1C1.37219 1 0.666748 1.7004 0.666748 2.56417C0.666748 3.42794 1.37219 4.12834 2.24218 4.12834C3.11217 4.12834 3.81761 3.42794 3.81761 2.56417Z" stroke="#767676" stroke-linecap="round" stroke-linejoin="round"/>
<path fill-rule="evenodd" clip-rule="evenodd" d="M11.3332 9.03585C11.3332 8.17208 10.6283 7.47168 9.75835 7.47168C8.88781 7.47168 8.18237 8.17208 8.18237 9.03585C8.18237 9.89962 8.88781 10.6 9.75835 10.6C10.6283 10.6 11.3332 9.89962 11.3332 9.03585Z" stroke="#767676" stroke-linecap="round" stroke-linejoin="round"/>
</svg>
