<svg width="13" height="12" viewBox="0 0 13 12" fill="none" xmlns="http://www.w3.org/2000/svg">
<g clip-path="url(#clip0_1_69751)">
<path d="M6.88574 11C9.64717 11 11.8857 8.76142 11.8857 6C11.8857 3.23858 9.64717 1 6.88574 1C4.12432 1 1.88574 3.23858 1.88574 6C1.88574 8.76142 4.12432 11 6.88574 11Z" stroke="#A16207" stroke-linecap="round" stroke-linejoin="round"/>
<path d="M5.43262 4.50224C5.55017 4.16807 5.78219 3.88629 6.08759 3.7068C6.393 3.52732 6.75206 3.46171 7.10121 3.52159C7.45035 3.58148 7.76703 3.763 7.99516 4.034C8.22329 4.305 8.34814 4.648 8.34762 5.00224C8.34762 6.00224 6.84762 6.50224 6.84762 6.50224" stroke="#A16207" stroke-linecap="round" stroke-linejoin="round"/>
<path d="M6.88574 8.5H6.89074" stroke="#A16207" stroke-linecap="round" stroke-linejoin="round"/>
</g>
<defs>
<clipPath id="clip0_1_69751">
<rect width="12" height="12" fill="white" transform="translate(0.885742)"/>
</clipPath>
</defs>
</svg>
