<svg width="16" height="16" viewBox="0 0 16 16" fill="none" xmlns="http://www.w3.org/2000/svg">
<path d="M12.0002 4.7735C11.9602 4.76683 11.9135 4.76683 11.8735 4.7735C10.9535 4.74017 10.2202 3.98683 10.2202 3.0535C10.2202 2.10016 10.9869 1.3335 11.9402 1.3335C12.8935 1.3335 13.6602 2.10683 13.6602 3.0535C13.6535 3.98683 12.9202 4.74017 12.0002 4.7735Z" stroke="#C28E5C" stroke-linecap="round" stroke-linejoin="round"/>
<path d="M11.3135 9.62694C12.2268 9.78027 13.2335 9.62027 13.9401 9.14694C14.8801 8.52027 14.8801 7.4936 13.9401 6.86694C13.2268 6.3936 12.2068 6.2336 11.2935 6.3936" stroke="#C28E5C" stroke-linecap="round" stroke-linejoin="round"/>
<path d="M3.97983 4.7735C4.01983 4.76683 4.06649 4.76683 4.10649 4.7735C5.02649 4.74017 5.75982 3.98683 5.75982 3.0535C5.75982 2.10016 4.99316 1.3335 4.03983 1.3335C3.08649 1.3335 2.31982 2.10683 2.31982 3.0535C2.32649 3.98683 3.05983 4.74017 3.97983 4.7735Z" stroke="#C28E5C" stroke-linecap="round" stroke-linejoin="round"/>
<path d="M4.66663 9.62694C3.75329 9.78027 2.74663 9.62027 2.03996 9.14694C1.09996 8.52027 1.09996 7.4936 2.03996 6.86694C2.75329 6.3936 3.77329 6.2336 4.68663 6.3936" stroke="#C28E5C" stroke-linecap="round" stroke-linejoin="round"/>
<path d="M8.00021 9.75348C7.96021 9.74681 7.91355 9.74681 7.87355 9.75348C6.95355 9.72015 6.22021 8.96681 6.22021 8.03348C6.22021 7.08014 6.98688 6.31348 7.94021 6.31348C8.89355 6.31348 9.66021 7.08681 9.66021 8.03348C9.65355 8.96681 8.92021 9.72681 8.00021 9.75348Z" stroke="#C28E5C" stroke-linecap="round" stroke-linejoin="round"/>
<path d="M6.05998 11.8537C5.11998 12.4804 5.11998 13.5071 6.05998 14.1337C7.12665 14.8471 8.87331 14.8471 9.93998 14.1337C10.88 13.5071 10.88 12.4804 9.93998 11.8537C8.87998 11.1471 7.12665 11.1471 6.05998 11.8537Z" stroke="#C28E5C" stroke-linecap="round" stroke-linejoin="round"/>
</svg>
