<svg width="13" height="12" viewBox="0 0 13 12" fill="none" xmlns="http://www.w3.org/2000/svg">
<g clip-path="url(#clip0_1_69767)">
<path d="M11.8857 5.54286V6.00286C11.8851 7.08107 11.536 8.1302 10.8904 8.99377C10.2448 9.85735 9.33738 10.4891 8.30342 10.7948C7.26946 11.1005 6.16437 11.0638 5.15298 10.6902C4.14158 10.3165 3.27807 9.62591 2.69122 8.7214C2.10438 7.81688 1.82564 6.74689 1.89658 5.67102C1.96752 4.59514 2.38435 3.57103 3.08488 2.7514C3.78542 1.93177 4.73213 1.36055 5.78384 1.12293C6.83554 0.885317 7.93588 0.99403 8.92074 1.43286" stroke="#2A8C5B" stroke-linecap="round" stroke-linejoin="round"/>
<path d="M5.38574 5.5L6.88574 7L11.8857 2" stroke="#2A8C5B" stroke-linecap="round" stroke-linejoin="round"/>
</g>
<defs>
<clipPath id="clip0_1_69767">
<rect width="12" height="12" fill="white" transform="translate(0.885742)"/>
</clipPath>
</defs>
</svg>
