<svg width="13" height="12" viewBox="0 0 13 12" fill="none" xmlns="http://www.w3.org/2000/svg">
<path d="M6.5 7.5C7.32843 7.5 8 6.82843 8 6C8 5.17157 7.32843 4.5 6.5 4.5C5.67157 4.5 5 5.17157 5 6C5 6.82843 5.67157 7.5 6.5 7.5Z" stroke="white" stroke-width="1.5" stroke-miterlimit="10" stroke-linecap="round" stroke-linejoin="round"/>
<path d="M1.5 6.44021V5.56021C1.5 5.04021 1.925 4.61021 2.45 4.61021C3.355 4.61021 3.725 3.97021 3.27 3.18521C3.01 2.73521 3.165 2.15021 3.62 1.89021L4.485 1.39521C4.88 1.16021 5.39 1.30021 5.625 1.69521L5.68 1.79021C6.13 2.57521 6.87 2.57521 7.325 1.79021L7.38 1.69521C7.615 1.30021 8.125 1.16021 8.52 1.39521L9.385 1.89021C9.84 2.15021 9.995 2.73521 9.735 3.18521C9.28 3.97021 9.65 4.61021 10.555 4.61021C11.075 4.61021 11.505 5.03521 11.505 5.56021V6.44021C11.505 6.96021 11.08 7.39021 10.555 7.39021C9.65 7.39021 9.28 8.03021 9.735 8.81521C9.995 9.27021 9.84 9.85021 9.385 10.1102L8.52 10.6052C8.125 10.8402 7.615 10.7002 7.38 10.3052L7.325 10.2102C6.875 9.42521 6.135 9.42521 5.68 10.2102L5.625 10.3052C5.39 10.7002 4.88 10.8402 4.485 10.6052L3.62 10.1102C3.165 9.85021 3.01 9.26521 3.27 8.81521C3.725 8.03021 3.355 7.39021 2.45 7.39021C1.925 7.39021 1.5 6.96021 1.5 6.44021Z" stroke="white" stroke-width="1.5" stroke-miterlimit="10" stroke-linecap="round" stroke-linejoin="round"/>
</svg>
