<svg width="280" height="76" viewBox="0 0 280 76" fill="none" xmlns="http://www.w3.org/2000/svg">
<path d="M64.444 47V30.44H66.556V45.128H73.708V47H64.444ZM78.3524 47.24C77.2164 47.24 76.3524 46.928 75.7604 46.304C75.1844 45.68 74.8964 44.76 74.8964 43.544C74.8964 42.744 75.0324 42.096 75.3044 41.6C75.5924 41.104 76.0164 40.728 76.5764 40.472C77.1524 40.216 77.8484 40.056 78.6644 39.992L82.2644 39.632V38.648C82.2644 37.864 82.0884 37.312 81.7364 36.992C81.3844 36.672 80.8724 36.512 80.2004 36.512C79.7844 36.512 79.2964 36.528 78.7364 36.56C78.1924 36.592 77.6404 36.632 77.0804 36.68C76.5364 36.728 76.0564 36.776 75.6404 36.824L75.5444 35.288C75.9284 35.208 76.3924 35.128 76.9364 35.048C77.4964 34.968 78.0724 34.904 78.6644 34.856C79.2724 34.792 79.8244 34.76 80.3204 34.76C81.2484 34.76 82.0084 34.896 82.6004 35.168C83.1924 35.44 83.6244 35.864 83.8964 36.44C84.1844 37 84.3284 37.728 84.3284 38.624V44.624C84.3604 44.96 84.4964 45.208 84.7364 45.368C84.9764 45.512 85.2804 45.608 85.6484 45.656L85.5764 47.24C85.3524 47.24 85.1284 47.232 84.9044 47.216C84.6964 47.2 84.4964 47.176 84.3044 47.144C84.1124 47.112 83.9364 47.072 83.7764 47.024C83.5364 46.944 83.3204 46.848 83.1284 46.736C82.9364 46.608 82.7524 46.464 82.5764 46.304C82.2724 46.432 81.8884 46.568 81.4244 46.712C80.9604 46.856 80.4644 46.976 79.9364 47.072C79.4084 47.184 78.8804 47.24 78.3524 47.24ZM78.7124 45.56C79.1284 45.56 79.5604 45.528 80.0084 45.464C80.4564 45.384 80.8804 45.288 81.2804 45.176C81.6804 45.064 82.0084 44.96 82.2644 44.864V41.12L78.9284 41.432C78.2404 41.496 77.7444 41.704 77.4404 42.056C77.1364 42.392 76.9844 42.872 76.9844 43.496C76.9844 44.136 77.1284 44.64 77.4164 45.008C77.7204 45.376 78.1524 45.56 78.7124 45.56ZM91.9096 47.24C91.5576 47.24 91.1256 47.224 90.6136 47.192C90.1176 47.176 89.6136 47.144 89.1016 47.096C88.5896 47.048 88.1416 47.008 87.7576 46.976V29.816H89.7976V35.552C90.0536 35.424 90.3736 35.304 90.7576 35.192C91.1416 35.064 91.5496 34.96 91.9816 34.88C92.4136 34.8 92.8216 34.76 93.2056 34.76C94.3096 34.76 95.1816 34.968 95.8216 35.384C96.4776 35.784 96.9416 36.432 97.2136 37.328C97.5016 38.224 97.6456 39.384 97.6456 40.808C97.6456 42.408 97.4696 43.68 97.1176 44.624C96.7816 45.552 96.1976 46.224 95.3656 46.64C94.5336 47.04 93.3816 47.24 91.9096 47.24ZM91.8856 45.416C92.9416 45.416 93.7256 45.256 94.2376 44.936C94.7496 44.616 95.0936 44.12 95.2696 43.448C95.4456 42.76 95.5336 41.88 95.5336 40.808C95.5336 39.816 95.4536 39.008 95.2936 38.384C95.1496 37.76 94.8856 37.304 94.5016 37.016C94.1176 36.712 93.5976 36.56 92.9416 36.56C92.5736 36.56 92.1896 36.6 91.7896 36.68C91.3896 36.744 91.0136 36.832 90.6616 36.944C90.3256 37.04 90.0376 37.128 89.7976 37.208V45.296C90.1336 45.328 90.5096 45.36 90.9256 45.392C91.3576 45.408 91.6776 45.416 91.8856 45.416ZM104.613 47.24C104.261 47.24 103.829 47.224 103.317 47.192C102.821 47.176 102.317 47.144 101.805 47.096C101.293 47.048 100.845 47.008 100.461 46.976V29.816H102.501V35.552C102.757 35.424 103.077 35.304 103.461 35.192C103.845 35.064 104.253 34.96 104.685 34.88C105.117 34.8 105.525 34.76 105.909 34.76C107.013 34.76 107.885 34.968 108.525 35.384C109.181 35.784 109.645 36.432 109.917 37.328C110.205 38.224 110.349 39.384 110.349 40.808C110.349 42.408 110.173 43.68 109.821 44.624C109.485 45.552 108.901 46.224 108.069 46.64C107.237 47.04 106.085 47.24 104.613 47.24ZM104.589 45.416C105.645 45.416 106.429 45.256 106.941 44.936C107.453 44.616 107.797 44.12 107.973 43.448C108.149 42.76 108.237 41.88 108.237 40.808C108.237 39.816 108.157 39.008 107.997 38.384C107.853 37.76 107.589 37.304 107.205 37.016C106.821 36.712 106.301 36.56 105.645 36.56C105.277 36.56 104.893 36.6 104.493 36.68C104.093 36.744 103.717 36.832 103.365 36.944C103.029 37.04 102.741 37.128 102.501 37.208V45.296C102.837 45.328 103.213 45.36 103.629 45.392C104.061 45.408 104.381 45.416 104.589 45.416ZM115.876 47.24C114.74 47.24 113.876 46.928 113.284 46.304C112.708 45.68 112.42 44.76 112.42 43.544C112.42 42.744 112.556 42.096 112.828 41.6C113.116 41.104 113.54 40.728 114.1 40.472C114.676 40.216 115.372 40.056 116.188 39.992L119.788 39.632V38.648C119.788 37.864 119.612 37.312 119.26 36.992C118.908 36.672 118.396 36.512 117.724 36.512C117.308 36.512 116.82 36.528 116.26 36.56C115.716 36.592 115.164 36.632 114.604 36.68C114.06 36.728 113.58 36.776 113.164 36.824L113.068 35.288C113.452 35.208 113.916 35.128 114.46 35.048C115.02 34.968 115.596 34.904 116.188 34.856C116.796 34.792 117.348 34.76 117.844 34.76C118.772 34.76 119.532 34.896 120.124 35.168C120.716 35.44 121.148 35.864 121.42 36.44C121.708 37 121.852 37.728 121.852 38.624V44.624C121.884 44.96 122.02 45.208 122.26 45.368C122.5 45.512 122.804 45.608 123.172 45.656L123.1 47.24C122.876 47.24 122.652 47.232 122.428 47.216C122.22 47.2 122.02 47.176 121.828 47.144C121.636 47.112 121.46 47.072 121.3 47.024C121.06 46.944 120.844 46.848 120.652 46.736C120.46 46.608 120.276 46.464 120.1 46.304C119.796 46.432 119.412 46.568 118.948 46.712C118.484 46.856 117.988 46.976 117.46 47.072C116.932 47.184 116.404 47.24 115.876 47.24ZM116.236 45.56C116.652 45.56 117.084 45.528 117.532 45.464C117.98 45.384 118.404 45.288 118.804 45.176C119.204 45.064 119.532 44.96 119.788 44.864V41.12L116.452 41.432C115.764 41.496 115.268 41.704 114.964 42.056C114.66 42.392 114.508 42.872 114.508 43.496C114.508 44.136 114.652 44.64 114.94 45.008C115.244 45.376 115.676 45.56 116.236 45.56Z" fill="#2C2C2C"/>
<path d="M160.765 32.848C160.189 32.848 159.749 32.632 159.445 32.2C159.141 31.752 158.989 31.136 158.989 30.352V29.536H160.069V30.352C160.069 30.896 160.133 31.272 160.261 31.48C160.389 31.672 160.557 31.768 160.765 31.768C161.101 31.768 161.325 31.552 161.437 31.12C161.565 30.688 161.549 29.992 161.389 29.032L162.445 28.816C162.669 30.08 162.645 31.072 162.373 31.792C162.101 32.496 161.565 32.848 160.765 32.848ZM158.269 32.848C157.485 32.848 156.949 32.496 156.661 31.792C156.389 31.072 156.365 30.08 156.589 28.816L157.669 29.032C157.493 29.992 157.469 30.688 157.597 31.12C157.725 31.552 157.949 31.768 158.269 31.768C158.493 31.768 158.669 31.672 158.797 31.48C158.925 31.272 158.989 30.896 158.989 30.352V29.536H160.069V30.352C160.069 31.136 159.917 31.752 159.613 32.2C159.309 32.632 158.861 32.848 158.269 32.848ZM144.78 52.952C143.74 52.952 142.772 52.8 141.876 52.496C140.996 52.208 140.228 51.8 139.572 51.272C138.916 50.76 138.396 50.144 138.012 49.424C137.644 48.72 137.46 47.952 137.46 47.12C137.46 46.816 137.484 46.424 137.532 45.944C137.58 45.464 137.644 44.912 137.724 44.288C137.82 43.664 137.924 43 138.036 42.296L141.204 42.728C141.044 43.736 140.916 44.632 140.82 45.416C140.724 46.2 140.676 46.752 140.676 47.072C140.676 47.68 140.844 48.216 141.18 48.68C141.516 49.144 141.988 49.504 142.596 49.76C143.22 50.032 143.948 50.168 144.78 50.168H151.572C152.612 50.168 153.388 49.904 153.9 49.376C154.412 48.864 154.668 48.08 154.668 47.024C154.668 46.496 154.58 46.088 154.404 45.8C154.228 45.496 153.916 45.24 153.468 45.032C153.02 44.808 152.372 44.568 151.524 44.312C150.564 44.008 149.724 43.72 149.004 43.448C148.284 43.176 147.692 42.88 147.228 42.56C146.764 42.224 146.412 41.824 146.172 41.36C145.948 40.896 145.836 40.312 145.836 39.608C145.836 38.552 146.068 37.688 146.532 37.016C146.996 36.328 147.66 35.816 148.524 35.48C149.388 35.128 150.412 34.952 151.596 34.952L151.476 37.736C150.884 37.736 150.404 37.8 150.036 37.928C149.684 38.04 149.428 38.224 149.268 38.48C149.108 38.72 149.028 39.04 149.028 39.44C149.028 39.776 149.108 40.056 149.268 40.28C149.444 40.488 149.692 40.672 150.012 40.832C150.332 40.992 150.7 41.136 151.116 41.264C151.532 41.376 151.988 41.512 152.484 41.672C153.364 41.928 154.132 42.216 154.788 42.536C155.46 42.84 156.02 43.192 156.468 43.592C156.932 43.992 157.276 44.48 157.5 45.056C157.74 45.616 157.86 46.288 157.86 47.072C157.86 48.224 157.604 49.24 157.092 50.12C156.58 51 155.852 51.688 154.908 52.184C153.98 52.696 152.868 52.952 151.572 52.952H144.78ZM159.996 47V34.952H163.212V45.776L161.34 44.216H165.732V47H159.996ZM151.476 37.736L151.596 34.952H159.996V37.736H151.476ZM165.732 47V44.216C165.828 44.216 165.9 44.248 165.948 44.312C166.012 44.376 166.06 44.472 166.092 44.6C166.14 44.728 166.172 44.88 166.188 45.056C166.204 45.216 166.212 45.4 166.212 45.608C166.212 45.816 166.204 46.008 166.188 46.184C166.172 46.36 166.14 46.512 166.092 46.64C166.06 46.752 166.012 46.84 165.948 46.904C165.9 46.968 165.828 47 165.732 47ZM159.996 52.112V49.376H163.212V52.112H159.996ZM168.439 47V30.032H171.655V47H168.439ZM165.727 47V44.216H168.439V47H165.727ZM165.727 47C165.631 47 165.559 46.968 165.511 46.904C165.447 46.84 165.399 46.752 165.367 46.64C165.319 46.512 165.287 46.36 165.271 46.184C165.255 46.008 165.247 45.816 165.247 45.608C165.247 45.32 165.263 45.08 165.295 44.888C165.327 44.68 165.383 44.52 165.463 44.408C165.527 44.28 165.615 44.216 165.727 44.216V47Z" fill="#C28E5C"/>
<rect x="185.5" y="22" width="32" height="32" rx="8" fill="#C28E5C"/>
<path d="M198.882 43V33.438H200.814V41.362H204.594V43H198.882Z" fill="white"/>
</svg>
