<svg width="155" height="32" viewBox="0 0 155 32" fill="none" xmlns="http://www.w3.org/2000/svg">
<path d="M1.944 25V8.44H4.056V23.128H11.208V25H1.944ZM15.8524 25.24C14.7164 25.24 13.8524 24.928 13.2604 24.304C12.6844 23.68 12.3964 22.76 12.3964 21.544C12.3964 20.744 12.5324 20.096 12.8044 19.6C13.0924 19.104 13.5164 18.728 14.0764 18.472C14.6524 18.216 15.3484 18.056 16.1644 17.992L19.7644 17.632V16.648C19.7644 15.864 19.5884 15.312 19.2364 14.992C18.8844 14.672 18.3724 14.512 17.7004 14.512C17.2844 14.512 16.7964 14.528 16.2364 14.56C15.6924 14.592 15.1404 14.632 14.5804 14.68C14.0364 14.728 13.5564 14.776 13.1404 14.824L13.0444 13.288C13.4284 13.208 13.8924 13.128 14.4364 13.048C14.9964 12.968 15.5724 12.904 16.1644 12.856C16.7724 12.792 17.3244 12.76 17.8204 12.76C18.7484 12.76 19.5084 12.896 20.1004 13.168C20.6924 13.44 21.1244 13.864 21.3964 14.44C21.6844 15 21.8284 15.728 21.8284 16.624V22.624C21.8604 22.96 21.9964 23.208 22.2364 23.368C22.4764 23.512 22.7804 23.608 23.1484 23.656L23.0764 25.24C22.8524 25.24 22.6284 25.232 22.4044 25.216C22.1964 25.2 21.9964 25.176 21.8044 25.144C21.6124 25.112 21.4364 25.072 21.2764 25.024C21.0364 24.944 20.8204 24.848 20.6284 24.736C20.4364 24.608 20.2524 24.464 20.0764 24.304C19.7724 24.432 19.3884 24.568 18.9244 24.712C18.4604 24.856 17.9644 24.976 17.4364 25.072C16.9084 25.184 16.3804 25.24 15.8524 25.24ZM16.2124 23.56C16.6284 23.56 17.0604 23.528 17.5084 23.464C17.9564 23.384 18.3804 23.288 18.7804 23.176C19.1804 23.064 19.5084 22.96 19.7644 22.864V19.12L16.4284 19.432C15.7404 19.496 15.2444 19.704 14.9404 20.056C14.6364 20.392 14.4844 20.872 14.4844 21.496C14.4844 22.136 14.6284 22.64 14.9164 23.008C15.2204 23.376 15.6524 23.56 16.2124 23.56ZM29.4096 25.24C29.0576 25.24 28.6256 25.224 28.1136 25.192C27.6176 25.176 27.1136 25.144 26.6016 25.096C26.0896 25.048 25.6416 25.008 25.2576 24.976V7.816H27.2976V13.552C27.5536 13.424 27.8736 13.304 28.2576 13.192C28.6416 13.064 29.0496 12.96 29.4816 12.88C29.9136 12.8 30.3216 12.76 30.7056 12.76C31.8096 12.76 32.6816 12.968 33.3216 13.384C33.9776 13.784 34.4416 14.432 34.7136 15.328C35.0016 16.224 35.1456 17.384 35.1456 18.808C35.1456 20.408 34.9696 21.68 34.6176 22.624C34.2816 23.552 33.6976 24.224 32.8656 24.64C32.0336 25.04 30.8816 25.24 29.4096 25.24ZM29.3856 23.416C30.4416 23.416 31.2256 23.256 31.7376 22.936C32.2496 22.616 32.5936 22.12 32.7696 21.448C32.9456 20.76 33.0336 19.88 33.0336 18.808C33.0336 17.816 32.9536 17.008 32.7936 16.384C32.6496 15.76 32.3856 15.304 32.0016 15.016C31.6176 14.712 31.0976 14.56 30.4416 14.56C30.0736 14.56 29.6896 14.6 29.2896 14.68C28.8896 14.744 28.5136 14.832 28.1616 14.944C27.8256 15.04 27.5376 15.128 27.2976 15.208V23.296C27.6336 23.328 28.0096 23.36 28.4256 23.392C28.8576 23.408 29.1776 23.416 29.3856 23.416ZM42.1127 25.24C41.7607 25.24 41.3287 25.224 40.8167 25.192C40.3207 25.176 39.8167 25.144 39.3047 25.096C38.7927 25.048 38.3447 25.008 37.9607 24.976V7.816H40.0007V13.552C40.2567 13.424 40.5767 13.304 40.9607 13.192C41.3447 13.064 41.7527 12.96 42.1847 12.88C42.6167 12.8 43.0247 12.76 43.4087 12.76C44.5127 12.76 45.3847 12.968 46.0247 13.384C46.6807 13.784 47.1447 14.432 47.4167 15.328C47.7047 16.224 47.8487 17.384 47.8487 18.808C47.8487 20.408 47.6727 21.68 47.3207 22.624C46.9847 23.552 46.4007 24.224 45.5687 24.64C44.7367 25.04 43.5847 25.24 42.1127 25.24ZM42.0887 23.416C43.1447 23.416 43.9287 23.256 44.4407 22.936C44.9527 22.616 45.2967 22.12 45.4727 21.448C45.6487 20.76 45.7367 19.88 45.7367 18.808C45.7367 17.816 45.6567 17.008 45.4967 16.384C45.3527 15.76 45.0887 15.304 44.7047 15.016C44.3207 14.712 43.8007 14.56 43.1447 14.56C42.7767 14.56 42.3927 14.6 41.9927 14.68C41.5927 14.744 41.2167 14.832 40.8647 14.944C40.5287 15.04 40.2407 15.128 40.0007 15.208V23.296C40.3367 23.328 40.7127 23.36 41.1287 23.392C41.5607 23.408 41.8807 23.416 42.0887 23.416ZM53.3758 25.24C52.2398 25.24 51.3758 24.928 50.7838 24.304C50.2078 23.68 49.9198 22.76 49.9198 21.544C49.9198 20.744 50.0558 20.096 50.3278 19.6C50.6158 19.104 51.0398 18.728 51.5998 18.472C52.1758 18.216 52.8718 18.056 53.6878 17.992L57.2878 17.632V16.648C57.2878 15.864 57.1118 15.312 56.7598 14.992C56.4078 14.672 55.8958 14.512 55.2238 14.512C54.8078 14.512 54.3198 14.528 53.7598 14.56C53.2158 14.592 52.6638 14.632 52.1038 14.68C51.5598 14.728 51.0798 14.776 50.6638 14.824L50.5678 13.288C50.9518 13.208 51.4158 13.128 51.9598 13.048C52.5198 12.968 53.0958 12.904 53.6878 12.856C54.2958 12.792 54.8478 12.76 55.3438 12.76C56.2718 12.76 57.0318 12.896 57.6238 13.168C58.2158 13.44 58.6478 13.864 58.9198 14.44C59.2078 15 59.3518 15.728 59.3518 16.624V22.624C59.3838 22.96 59.5198 23.208 59.7598 23.368C59.9998 23.512 60.3038 23.608 60.6718 23.656L60.5998 25.24C60.3758 25.24 60.1518 25.232 59.9278 25.216C59.7198 25.2 59.5198 25.176 59.3278 25.144C59.1358 25.112 58.9598 25.072 58.7998 25.024C58.5598 24.944 58.3438 24.848 58.1518 24.736C57.9598 24.608 57.7758 24.464 57.5998 24.304C57.2958 24.432 56.9118 24.568 56.4478 24.712C55.9838 24.856 55.4878 24.976 54.9598 25.072C54.4318 25.184 53.9038 25.24 53.3758 25.24ZM53.7358 23.56C54.1518 23.56 54.5838 23.528 55.0318 23.464C55.4798 23.384 55.9038 23.288 56.3038 23.176C56.7038 23.064 57.0318 22.96 57.2878 22.864V19.12L53.9518 19.432C53.2638 19.496 52.7678 19.704 52.4638 20.056C52.1598 20.392 52.0078 20.872 52.0078 21.496C52.0078 22.136 52.1518 22.64 52.4398 23.008C52.7438 23.376 53.1758 23.56 53.7358 23.56Z" fill="#2C2C2C"/>
<path d="M98.2653 10.848C97.6893 10.848 97.2493 10.632 96.9453 10.2C96.6413 9.752 96.4893 9.136 96.4893 8.352V7.536H97.5693V8.352C97.5693 8.896 97.6333 9.272 97.7613 9.48C97.8893 9.672 98.0573 9.768 98.2653 9.768C98.6013 9.768 98.8253 9.552 98.9373 9.12C99.0653 8.688 99.0493 7.992 98.8893 7.032L99.9453 6.816C100.169 8.08 100.145 9.072 99.8733 9.792C99.6013 10.496 99.0653 10.848 98.2653 10.848ZM95.7693 10.848C94.9853 10.848 94.4493 10.496 94.1613 9.792C93.8893 9.072 93.8653 8.08 94.0893 6.816L95.1693 7.032C94.9933 7.992 94.9693 8.688 95.0973 9.12C95.2253 9.552 95.4493 9.768 95.7693 9.768C95.9933 9.768 96.1693 9.672 96.2973 9.48C96.4253 9.272 96.4893 8.896 96.4893 8.352V7.536H97.5693V8.352C97.5693 9.136 97.4173 9.752 97.1133 10.2C96.8093 10.632 96.3613 10.848 95.7693 10.848ZM82.28 30.952C81.24 30.952 80.272 30.8 79.376 30.496C78.496 30.208 77.728 29.8 77.072 29.272C76.416 28.76 75.896 28.144 75.512 27.424C75.144 26.72 74.96 25.952 74.96 25.12C74.96 24.816 74.984 24.424 75.032 23.944C75.08 23.464 75.144 22.912 75.224 22.288C75.32 21.664 75.424 21 75.536 20.296L78.704 20.728C78.544 21.736 78.416 22.632 78.32 23.416C78.224 24.2 78.176 24.752 78.176 25.072C78.176 25.68 78.344 26.216 78.68 26.68C79.016 27.144 79.488 27.504 80.096 27.76C80.72 28.032 81.448 28.168 82.28 28.168H89.072C90.112 28.168 90.888 27.904 91.4 27.376C91.912 26.864 92.168 26.08 92.168 25.024C92.168 24.496 92.08 24.088 91.904 23.8C91.728 23.496 91.416 23.24 90.968 23.032C90.52 22.808 89.872 22.568 89.024 22.312C88.064 22.008 87.224 21.72 86.504 21.448C85.784 21.176 85.192 20.88 84.728 20.56C84.264 20.224 83.912 19.824 83.672 19.36C83.448 18.896 83.336 18.312 83.336 17.608C83.336 16.552 83.568 15.688 84.032 15.016C84.496 14.328 85.16 13.816 86.024 13.48C86.888 13.128 87.912 12.952 89.096 12.952L88.976 15.736C88.384 15.736 87.904 15.8 87.536 15.928C87.184 16.04 86.928 16.224 86.768 16.48C86.608 16.72 86.528 17.04 86.528 17.44C86.528 17.776 86.608 18.056 86.768 18.28C86.944 18.488 87.192 18.672 87.512 18.832C87.832 18.992 88.2 19.136 88.616 19.264C89.032 19.376 89.488 19.512 89.984 19.672C90.864 19.928 91.632 20.216 92.288 20.536C92.96 20.84 93.52 21.192 93.968 21.592C94.432 21.992 94.776 22.48 95 23.056C95.24 23.616 95.36 24.288 95.36 25.072C95.36 26.224 95.104 27.24 94.592 28.12C94.08 29 93.352 29.688 92.408 30.184C91.48 30.696 90.368 30.952 89.072 30.952H82.28ZM97.496 25V12.952H100.712V23.776L98.84 22.216H103.232V25H97.496ZM88.976 15.736L89.096 12.952H97.496V15.736H88.976ZM103.232 25V22.216C103.328 22.216 103.4 22.248 103.448 22.312C103.512 22.376 103.56 22.472 103.592 22.6C103.64 22.728 103.672 22.88 103.688 23.056C103.704 23.216 103.712 23.4 103.712 23.608C103.712 23.816 103.704 24.008 103.688 24.184C103.672 24.36 103.64 24.512 103.592 24.64C103.56 24.752 103.512 24.84 103.448 24.904C103.4 24.968 103.328 25 103.232 25ZM97.496 30.112V27.376H100.712V30.112H97.496ZM105.939 25V8.032H109.155V25H105.939ZM103.227 25V22.216H105.939V25H103.227ZM103.227 25C103.131 25 103.059 24.968 103.011 24.904C102.947 24.84 102.899 24.752 102.867 24.64C102.819 24.512 102.787 24.36 102.771 24.184C102.755 24.008 102.747 23.816 102.747 23.608C102.747 23.32 102.763 23.08 102.795 22.888C102.827 22.68 102.883 22.52 102.963 22.408C103.027 22.28 103.115 22.216 103.227 22.216V25Z" fill="#C28E5C"/>
<rect x="123" width="32" height="32" rx="8" fill="#C28E5C"/>
<path d="M136.382 21V11.438H138.314V19.362H142.094V21H136.382Z" fill="white"/>
</svg>
