<svg width="17" height="16" viewBox="0 0 17 16" fill="none" xmlns="http://www.w3.org/2000/svg">
<path d="M14.5715 3.98665C12.3515 3.76665 10.1182 3.65332 7.89153 3.65332C6.57153 3.65332 5.25153 3.71999 3.93153 3.85332L2.57153 3.98665" stroke="#C0392B" stroke-linecap="round" stroke-linejoin="round"/>
<path d="M6.23828 3.3135L6.38495 2.44016C6.49161 1.80683 6.57161 1.3335 7.69828 1.3335H9.44495C10.5716 1.3335 10.6583 1.8335 10.7583 2.44683L10.9049 3.3135" stroke="#C0392B" stroke-linecap="round" stroke-linejoin="round"/>
<path d="M13.1382 6.09326L12.7049 12.8066C12.6316 13.8533 12.5715 14.6666 10.7115 14.6666H6.43155C4.57155 14.6666 4.51155 13.8533 4.43822 12.8066L4.00488 6.09326" stroke="#C0392B" stroke-linecap="round" stroke-linejoin="round"/>
<path d="M7.45825 11H9.67825" stroke="#C0392B" stroke-linecap="round" stroke-linejoin="round"/>
<path d="M6.90479 8.3335H10.2381" stroke="#C0392B" stroke-linecap="round" stroke-linejoin="round"/>
</svg>
