<svg width="81" height="44" viewBox="0 0 81 44" fill="none" xmlns="http://www.w3.org/2000/svg">
<path fill-rule="evenodd" clip-rule="evenodd" d="M16.594 -0.00195312H64.4069C73.2584 -0.00195312 80.5005 7.22126 80.5005 16.0493C80.5005 24.8774 73.2584 32.1006 64.4069 32.1006H30.7911L20.9917 43.998V32.1006H16.594C7.74254 32.1006 0.500488 24.8777 0.500488 16.0493C0.500488 7.22094 7.74254 -0.00195312 16.594 -0.00195312Z" fill="#2C2C2C"/>
<path fill-rule="evenodd" clip-rule="evenodd" d="M15.7554 9.11117C15.7554 8.51807 15.9889 7.94926 16.4044 7.52988C16.8199 7.11049 17.3834 6.87488 17.9711 6.87488C18.5587 6.87488 19.1222 7.11049 19.5377 7.52988C19.9533 7.94926 20.1867 8.51807 20.1867 9.11117V11.2628L22.032 10.1875C22.539 9.89687 23.1395 9.82071 23.702 9.97564C24.2646 10.1306 24.7434 10.504 25.034 11.0143C25.3246 11.5246 25.4031 12.1302 25.2526 12.6988C25.102 13.2674 24.7345 13.7527 24.2305 14.0486L22.3833 15.1249L24.2305 16.2012C24.7345 16.4971 25.102 16.9824 25.2526 17.551C25.4031 18.1196 25.3246 18.7252 25.034 19.2355C24.7434 19.7458 24.2646 20.1192 23.702 20.2741C23.1395 20.429 22.539 20.3529 22.032 20.0623L20.1867 18.987V21.1386C20.1867 21.7317 19.9533 22.3005 19.5377 22.7199C19.1222 23.1393 18.5587 23.3749 17.9711 23.3749C17.3834 23.3749 16.8199 23.1393 16.4044 22.7199C15.9889 22.3005 15.7554 21.7317 15.7554 21.1386V18.987L13.9102 20.0623C13.4031 20.3529 12.8027 20.429 12.2401 20.2741C11.6776 20.1192 11.1987 19.7458 10.9081 19.2355C10.6176 18.7252 10.539 18.1196 10.6896 17.551C10.8401 16.9824 11.2076 16.4971 11.7116 16.2012L13.5588 15.1249L11.7116 14.0486C11.2076 13.7527 10.8401 13.2674 10.6896 12.6988C10.539 12.1302 10.6176 11.5246 10.9081 11.0143C11.1987 10.504 11.6776 10.1306 12.2401 9.97564C12.8027 9.82071 13.4031 9.89687 13.9102 10.1875L15.7554 11.2628V9.11117Z" fill="white"/>
<path fill-rule="evenodd" clip-rule="evenodd" d="M38.7447 9.11117C38.7447 8.51807 38.9781 7.94926 39.3936 7.52988C39.8092 7.11049 40.3727 6.87488 40.9603 6.87488C41.5479 6.87488 42.1115 7.11049 42.527 7.52988C42.9425 7.94926 43.1759 8.51807 43.1759 9.11117V11.2628L45.0212 10.1875C45.5283 9.89687 46.1287 9.82071 46.6913 9.97564C47.2538 10.1306 47.7327 10.504 48.0233 11.0143C48.3138 11.5246 48.3924 12.1302 48.2418 12.6988C48.0913 13.2674 47.7238 13.7527 47.2198 14.0486L45.3726 15.1249L47.2198 16.2012C47.7238 16.4971 48.0913 16.9824 48.2418 17.551C48.3924 18.1196 48.3138 18.7252 48.0233 19.2355C47.7327 19.7458 47.2538 20.1192 46.6913 20.2741C46.1287 20.429 45.5283 20.3529 45.0212 20.0623L43.1759 18.987V21.1386C43.1759 21.7317 42.9425 22.3005 42.527 22.7199C42.1115 23.1393 41.5479 23.3749 40.9603 23.3749C40.3727 23.3749 39.8092 23.1393 39.3936 22.7199C38.9781 22.3005 38.7447 21.7317 38.7447 21.1386V18.987L36.8994 20.0623C36.3923 20.3529 35.7919 20.429 35.2294 20.2741C34.6668 20.1192 34.1879 19.7458 33.8974 19.2355C33.6068 18.7252 33.5283 18.1196 33.6788 17.551C33.8294 16.9824 34.1969 16.4971 34.7009 16.2012L36.5481 15.1249L34.7009 14.0486C34.1969 13.7527 33.8294 13.2674 33.6788 12.6988C33.5283 12.1302 33.6068 11.5246 33.8974 11.0143C34.1879 10.504 34.6668 10.1306 35.2294 9.97564C35.7919 9.82071 36.3923 9.89687 36.8994 10.1875L38.7447 11.2628V9.11117Z" fill="white"/>
<path fill-rule="evenodd" clip-rule="evenodd" d="M61.734 9.11117C61.734 8.51807 61.9674 7.94926 62.3829 7.52988C62.7984 7.11049 63.362 6.87488 63.9496 6.87488C64.5372 6.87488 65.1008 7.11049 65.5163 7.52988C65.9318 7.94926 66.1652 8.51807 66.1652 9.11117V11.2628L68.0105 10.1875C68.5176 9.89687 69.118 9.82071 69.6805 9.97564C70.2431 10.1306 70.722 10.504 71.0125 11.0143C71.3031 11.5246 71.3817 12.1302 71.2311 12.6988C71.0805 13.2674 70.7131 13.7527 70.209 14.0486L68.3618 15.1249L70.209 16.2012C70.7131 16.4971 71.0805 16.9824 71.2311 17.551C71.3817 18.1196 71.3031 18.7252 71.0125 19.2355C70.722 19.7458 70.2431 20.1192 69.6805 20.2741C69.118 20.429 68.5176 20.3529 68.0105 20.0623L66.1652 18.987V21.1386C66.1652 21.7317 65.9318 22.3005 65.5163 22.7199C65.1008 23.1393 64.5372 23.3749 63.9496 23.3749C63.362 23.3749 62.7984 23.1393 62.3829 22.7199C61.9674 22.3005 61.734 21.7317 61.734 21.1386V18.987L59.8887 20.0623C59.3816 20.3529 58.7812 20.429 58.2186 20.2741C57.6561 20.1192 57.1772 19.7458 56.8867 19.2355C56.5961 18.7252 56.5175 18.1196 56.6681 17.551C56.8186 16.9824 57.1861 16.4971 57.6902 16.2012L59.5373 15.1249L57.6902 14.0486C57.1861 13.7527 56.8186 13.2674 56.6681 12.6988C56.5175 12.1302 56.5961 11.5246 56.8867 11.0143C57.1772 10.504 57.6561 10.1306 58.2186 9.97564C58.7812 9.82071 59.3816 9.89687 59.8887 10.1875L61.734 11.2628V9.11117Z" fill="white"/>
</svg>
