<svg width="23" height="24" viewBox="0 0 23 24" fill="none" xmlns="http://www.w3.org/2000/svg">
<g clip-path="url(#clip0_90_4526)">
<path d="M12 22.5886C17.8477 22.5886 22.5882 17.8481 22.5882 12.0003C22.5882 6.15262 17.8477 1.41211 12 1.41211C6.15228 1.41211 1.41177 6.15262 1.41177 12.0003C1.41177 17.8481 6.15228 22.5886 12 22.5886Z" fill="#699635"/>
<path d="M11.1864 10.0125C11.1511 9.675 11.3275 9.3375 11.6452 9.4125C11.8922 9.45 12.1746 9.7125 12.0334 9.975C11.8216 10.3875 11.2569 10.3875 10.904 10.6125C10.9393 10.8375 11.9628 10.575 12.1393 10.575C12.3158 10.575 12.4922 10.65 12.3864 10.875C12.2805 11.1 11.9275 11.1 11.7158 11.1375C11.504 11.175 11.1511 11.175 11.0452 11.3625C10.8334 11.6625 11.2569 11.7 11.3981 11.775C11.7511 11.9625 11.1864 12.15 11.0452 12.1125C10.5158 12 10.4099 11.7 10.0922 11.325C9.77459 11.775 8.78635 12.7875 8.57459 11.7375C8.22164 11.8875 7.8687 12.075 7.48047 12.1125C7.65694 11.85 8.00988 11.7375 8.29223 11.5875C8.64517 11.4 8.64517 11.0625 8.85694 10.7625C8.92753 10.875 8.85694 11.025 8.89223 11.175C9.17459 11.025 9.52753 10.725 9.38635 10.35C9.38635 10.3125 8.96282 9.4125 9.31576 9.5625C9.63341 9.7125 9.52753 10.05 9.59812 10.3125C9.704 10.8 9.49223 11.0625 9.13929 11.3625C8.99812 11.475 8.60988 11.925 9.0687 11.925C9.38635 11.925 9.6687 11.55 9.84517 11.325C10.0569 11.025 9.98635 10.725 9.84517 10.3875C9.73929 10.125 9.49223 9.5625 9.80988 9.375C10.0569 9.7875 10.1628 10.275 10.2687 10.7625C10.3393 11.175 10.4099 11.5875 10.8334 11.7C10.7981 11.4 10.9746 11.175 11.2216 11.0625C11.0452 10.9125 10.0569 11.1 10.4452 10.5375C10.4805 10.275 11.1864 10.1625 11.1864 10.0125Z" fill="white"/>
<path d="M5.78799 11.4C5.96446 11.925 6.56446 11.7375 6.9174 11.5875C7.48211 11.2875 7.48211 10.8375 7.48211 10.2375C7.27034 10.35 7.30564 10.7625 7.23505 10.95C7.09387 11.25 6.63505 11.5125 6.3174 11.475C5.85858 11.4 5.64681 10.575 5.99976 10.275C6.07034 10.5375 5.89387 11.1 6.3174 11.1375C6.63505 11.175 7.27034 10.7625 7.16446 10.3875C6.74093 10.5375 6.49387 10.3875 6.63505 9.89998C6.74093 9.44998 7.16446 9.78748 7.34093 10.0125C8.01152 9.59998 6.81152 8.02498 7.5174 7.61248C7.65858 7.87498 7.87034 8.21248 7.69387 8.47498C7.48211 8.77498 7.69387 9.41248 7.72917 9.74998C8.08211 9.41248 7.79976 10.0125 8.08211 10.05C8.25858 10.0875 8.32917 9.59998 8.43505 9.59998C8.47034 9.71248 8.47034 10.05 8.64681 10.0125C8.85858 9.93748 8.61152 9.63748 8.82328 9.56248C8.89387 9.74998 8.85858 10.3125 8.61152 10.275C8.39976 10.2375 8.43505 10.0875 8.18799 10.2375C7.97623 10.35 7.90564 10.2375 7.76446 10.125C7.72917 10.575 7.87034 11.0625 7.62328 11.475C7.41152 11.8125 6.98799 12 6.63505 12.075C5.7174 12.2625 5.47034 11.2875 5.78799 10.5C5.85858 10.725 5.7174 11.1375 5.78799 11.4ZM14.3998 11.5875C14.5762 12.075 14.9292 11.0625 15.035 10.9125C15.3174 10.4625 15.7409 11.625 15.9174 10.875C16.0233 10.3875 15.8821 9.89998 15.8468 9.41248C15.8115 9.07498 15.7056 8.77498 15.4939 8.51248C15.2821 8.21248 15.0703 7.94998 15.1762 7.57498C15.5292 7.72498 15.5292 8.02498 15.7056 8.32498C15.7409 8.09998 15.5998 7.79998 15.7409 7.61248C15.9174 7.34998 16.0586 8.06248 16.0586 8.13748C16.0939 8.32498 15.9174 8.39998 16.0233 8.69998C16.0939 8.92498 16.2351 9.14998 16.3762 9.33748C16.3409 9.11248 16.0233 7.57498 16.3762 7.57498C16.4821 7.57498 16.588 8.02498 16.588 8.09998C16.6586 8.32498 16.5174 8.51248 16.5174 8.77498C16.4821 9.22498 16.5527 9.74998 16.835 10.0875C16.9762 10.275 17.5056 10.95 17.2233 11.175C17.0115 10.9125 16.8703 10.6125 16.6939 10.35C16.6939 10.65 16.7645 10.9875 16.6233 11.2125C16.4821 11.1375 16.5527 10.65 16.5527 10.5375C16.5527 10.125 16.3056 9.78748 16.0939 9.44998C16.0233 10.0125 16.4468 11.0625 15.9527 11.475C15.635 11.775 15.2115 11.1 15.1056 11.3625C14.9998 11.55 14.7527 12.225 14.4703 12.15C14.1174 12.075 13.8703 11.025 14.2586 10.9125C14.2939 11.1 14.2939 11.3625 14.3998 11.5875Z" fill="white"/>
<path d="M6.84621 9.03827C7.09327 9.07577 6.84621 8.17577 6.84621 8.02577C6.88151 7.87577 6.98739 7.80077 7.05798 7.95077C7.16386 8.17577 7.16386 8.43827 7.19916 8.66327C7.19916 8.85077 7.23445 9.07577 7.09327 9.22577C6.88151 9.45077 6.59916 9.33827 6.49327 9.03827C5.99916 9.48827 6.63445 10.2758 6.21092 10.7258C6.14033 10.3133 6.21092 9.86327 6.06974 9.48827C5.99916 9.30077 5.68151 9.37577 5.64621 9.03827C5.64621 8.88827 5.7521 8.47577 5.61092 8.36327C5.54033 8.51327 5.46974 9.67577 5.1168 9.33827C4.83445 9.11327 4.90504 8.36327 5.01092 8.06327C5.22269 8.17577 4.97563 9.00077 5.25798 9.03827C5.39916 9.07577 5.43445 8.43827 5.46974 8.32577C5.57563 8.13827 5.92857 7.61327 5.85798 8.13827C5.82269 8.36327 5.64621 9.07577 6.06974 9.03827C6.03445 8.66327 5.99916 8.28827 5.92857 7.91327C5.89327 7.72577 5.99916 7.35077 6.14033 7.68827C6.24621 7.91327 6.17563 8.02577 6.14033 8.25077C6.10504 8.51327 6.21092 8.77577 6.24621 9.00077C6.45798 8.81327 6.17563 8.10077 6.3521 7.80077C6.77563 8.06327 6.3168 8.96327 6.84621 9.03827ZM11.3992 9.11327C11.2227 9.37577 10.905 9.15077 10.7639 8.96327C10.5874 9.18827 10.2345 9.56327 9.9521 9.26327C9.74033 9.03827 9.98739 8.62577 9.81092 8.43827C9.70504 8.62577 9.52857 9.52577 9.21092 9.11327C9.03445 8.88827 8.78739 8.10077 9.17563 7.91327C9.14033 8.21327 9.06974 8.55077 9.24621 8.81327C9.42269 9.07577 9.59916 8.40077 9.66974 8.25077C9.77563 7.98827 10.1286 7.53827 10.058 8.10077C10.0227 8.32577 9.9521 8.85077 10.1639 9.00077C10.305 9.11327 10.4815 8.92577 10.5521 8.81327C10.6933 8.62577 10.6227 8.32577 10.5874 8.10077C10.5521 7.91327 10.4815 7.68827 10.5874 7.50077C10.7286 7.27577 10.8345 7.80077 10.8345 7.91327C10.8345 8.02577 10.9756 9.18827 11.2227 8.81327C11.4697 8.47577 10.7992 7.72577 11.258 7.53827C11.4345 7.46327 11.7521 8.21327 11.3992 7.98827C11.505 8.32577 11.6462 8.81327 11.3992 9.11327ZM12.7403 9.56327C12.7756 10.0508 13.1639 11.4008 12.6345 11.7008C12.5639 11.5508 12.6345 11.3258 12.6697 11.1383C12.705 10.8008 12.6345 10.4633 12.5992 10.1633C12.5286 9.45077 12.458 8.92577 11.9992 8.36327C11.8933 8.21327 11.7168 8.10077 11.6815 7.87577C11.6815 7.80077 11.6462 7.46327 11.7874 7.53827C11.8933 7.57577 12.4933 8.13827 12.1756 8.13827C12.2109 8.21327 12.3521 8.51327 12.4227 8.51327C12.4227 8.32577 12.2109 7.76327 12.4227 7.65077C12.5992 7.53827 12.8109 8.25077 12.7403 8.40077C12.6697 8.58827 12.6697 8.70077 12.7403 8.96327C12.8109 9.26327 12.9874 9.52577 13.1286 9.78827C13.3403 10.1633 13.7639 10.6883 13.658 11.1758C13.4462 11.0633 13.305 10.5383 13.1992 10.3133C13.1286 10.1258 13.058 9.93827 12.9521 9.78827C12.9168 9.75077 12.705 9.45077 12.7403 9.63827V9.56327ZM17.6462 10.2758C17.6815 11.0633 17.4344 12.0758 16.5168 12.0758C16.5168 11.8508 16.9756 11.6258 17.1168 11.5133C17.4697 11.2133 17.4344 10.6508 17.3992 10.2383C17.3639 9.67577 17.3286 9.11327 17.2227 8.55077C17.1874 8.21327 17.0109 7.72577 17.2933 7.50077C17.4697 7.65077 17.7168 8.06327 17.6109 8.21327C17.4345 8.43827 17.6109 10.1258 17.6462 10.2758Z" fill="white"/>
<path d="M13.1253 11.9628C14.043 11.4003 13.7606 10.2003 13.69 9.26281C13.6547 9.00031 13.6547 8.73781 13.6194 8.47531C13.6194 8.28781 13.4783 8.02531 13.5489 7.83781C13.7253 7.35031 13.8665 7.80031 13.9018 8.10031C13.9371 8.28781 13.7959 8.32531 13.8312 8.47531C13.8665 8.77531 13.8665 9.07531 13.9018 9.37531C13.9371 9.86281 14.0077 10.3503 13.9724 10.8003C13.9018 11.5128 13.5489 12.3003 12.7371 12.1503C12.7724 12.0753 13.0194 12.0378 13.1253 11.9628ZM14.6077 10.0878C14.643 10.4628 14.7841 11.1378 14.6077 11.4753C14.4665 11.7003 14.4665 11.3253 14.4312 11.2878C14.3959 10.9878 14.3959 10.6878 14.3959 10.3503C14.3253 9.52531 14.0783 8.70031 14.0783 7.91281C14.0783 6.90031 14.89 8.47531 14.4312 8.40031C14.4665 8.96281 14.5371 9.52531 14.6077 10.0878ZM8.85473 8.17531C8.92532 8.36281 8.04297 8.85031 7.93709 8.85031C7.90179 8.66281 8.32532 8.40031 8.4312 8.32531C8.53709 8.21281 8.60767 8.21281 8.57238 8.06281C8.50179 7.91281 8.53709 7.65031 8.71356 7.57531C9.0665 7.46281 8.81944 8.02531 8.85473 8.17531ZM5.21944 11.5128C5.21944 11.8128 5.32532 11.6628 5.4665 11.5878C5.53709 11.7378 5.36062 12.1503 5.18415 11.9628C4.93709 11.7003 5.14885 11.1003 5.25473 10.8378C5.32532 11.0253 5.18415 11.3253 5.21944 11.5128ZM15.1724 9.18781C15.2077 9.03781 15.1018 8.88781 15.2077 8.73781C15.3489 8.55031 15.49 8.77531 15.4194 8.85031C15.3489 8.92531 15.243 8.77531 15.243 9.00031C15.243 9.11281 15.3136 9.33781 15.2077 9.45031C15.1371 9.41281 14.8194 8.92531 14.8547 8.85031C14.9959 8.70031 15.1371 9.15031 15.1724 9.18781ZM5.96062 9.82531C5.89003 9.97531 5.07826 10.4628 5.04297 10.3503C5.04297 10.2378 6.0665 9.60031 5.96062 9.82531ZM11.9606 11.7378C11.8547 12.0753 12.3136 11.7753 12.4194 11.7378C12.2783 12.0003 11.7841 12.2253 11.8547 11.7378C11.8194 11.7378 11.7489 11.7753 11.7136 11.7753C11.643 11.7003 12.0665 11.4003 11.9606 11.7378ZM15.8077 11.6253C15.9136 11.6253 16.09 11.9628 15.9841 12.0378C15.9136 12.1128 15.5959 12.1503 15.7724 12.0003C15.9841 11.7753 15.8077 11.6253 15.8077 11.6253ZM10.8312 9.71281C10.8665 9.63781 10.8665 9.52531 10.9018 9.45031C11.2547 9.75031 10.3371 10.2378 10.5136 9.52531C10.5841 9.60031 10.5841 9.71281 10.6547 9.75031C10.6547 9.67531 10.69 9.56281 10.69 9.48781C10.7606 9.56281 10.7606 9.67531 10.8312 9.71281ZM14.9606 10.2003C14.8547 10.0503 15.49 9.63781 15.5959 9.56281C15.6665 9.67531 15.1724 10.0878 14.9606 10.2003ZM16.9371 8.70031C16.8665 8.47531 16.6547 8.02531 16.8665 7.83781C17.0077 7.95031 17.0783 8.51281 16.9371 8.70031ZM13.09 7.95031C13.0547 7.87531 12.9489 7.80031 12.9489 7.68781C12.9841 7.53781 13.0547 7.57531 13.1253 7.65031C13.2312 7.80031 13.3018 8.21281 13.1253 8.32531C13.1253 8.21281 13.1606 8.06281 13.09 7.95031ZM8.78414 8.96281C8.78414 9.18781 8.4312 9.41281 8.39591 9.11281C8.36062 9.00031 8.53709 8.58781 8.60767 8.70031C8.4665 9.03781 8.4665 9.15031 8.78414 8.96281Z" fill="white"/>
<path d="M13.1967 8.5507C13.3379 8.9257 13.2673 8.5882 13.4085 8.5132C13.6555 9.0007 12.8791 8.8882 13.0555 8.5882C13.0908 8.6257 13.1261 8.7007 13.1261 8.7382C13.1614 8.7007 13.1614 8.6257 13.1967 8.5507ZM15.4555 10.2757C15.2791 10.1257 15.4908 9.9382 15.5967 10.1257C15.6673 10.2382 15.6673 10.5382 15.5261 10.6132C15.5261 10.5007 15.5614 10.3507 15.4555 10.2757ZM8.22023 11.1007C8.22023 11.0257 8.18494 10.4632 8.29082 10.5382C8.432 10.6132 8.3967 11.0257 8.22023 11.1007ZM6.73788 7.5757C6.77317 7.6882 6.80847 7.8382 6.87905 7.6507C7.16141 7.9882 6.17317 7.8757 6.52611 7.5382C6.52611 7.5757 6.5967 7.8007 6.73788 7.5757ZM10.3379 8.4007C10.3379 8.2507 10.1261 7.6132 10.3026 7.6132C10.5143 7.6507 10.4791 8.2132 10.3379 8.4007ZM5.3967 8.0632C5.29082 8.0257 5.46729 7.8382 5.3967 7.6882C5.32611 7.7257 5.25553 7.6132 5.32611 7.5382C5.60847 7.3132 5.50258 8.0632 5.3967 8.0632ZM14.5379 15.6757L14.3967 15.2257L14.2555 15.6757H6.52611C6.52611 15.6757 6.5967 16.3507 7.37317 16.3507H14.2202V16.8757H16.0908V15.6757H14.5379ZM15.7379 16.5757H14.4673V16.2007H15.7379V16.5757Z" fill="white"/>
</g>
<defs>
<clipPath id="clip0_90_4526">
<rect width="22.5882" height="24" fill="white"/>
</clipPath>
</defs>
</svg>
