<svg width="116" height="120" viewBox="0 0 116 120" fill="none" xmlns="http://www.w3.org/2000/svg">
<g filter="url(#filter0_i_90_5821)">
<path fill-rule="evenodd" clip-rule="evenodd" d="M40.2814 0C55.1205 0 67.2615 12.1221 67.2615 26.9381V40.2685H55.3942V26.9381C55.3942 18.6621 48.5703 11.8489 40.2814 11.8489C31.9926 11.8489 25.1691 18.6625 25.1691 26.9381V40.2685H13.3018V26.9381C13.3018 12.1221 25.4428 0 40.2814 0Z" fill="#EDEFFD"/>
</g>
<g filter="url(#filter1_i_90_5821)">
<path d="M72.8039 40.2676H7.75968C3.70389 40.2676 0.416016 43.5598 0.416016 47.6209V97.3438C0.416016 101.405 3.70389 104.697 7.75968 104.697H72.8039C76.8597 104.697 80.1476 101.405 80.1476 97.3438V47.6209C80.1476 43.5598 76.8597 40.2676 72.8039 40.2676Z" fill="#C28E5C"/>
</g>
<path fill-rule="evenodd" clip-rule="evenodd" d="M38.2679 55.5703C43.1608 55.5703 47.1273 59.4836 47.1273 64.3105C47.1273 67.6723 45.2033 70.5898 42.3828 72.0522V85.3364C42.3828 87.569 40.5312 89.3958 38.2682 89.3958C36.0053 89.3958 34.1536 87.569 34.1536 85.3364V72.0522C31.3332 70.5901 29.4092 67.6723 29.4092 64.3105C29.4092 59.4832 33.3753 55.5703 38.2679 55.5703Z" fill="#CEA57D"/>
<path fill-rule="evenodd" clip-rule="evenodd" d="M40.6839 55.5703C45.5768 55.5703 49.5433 59.4836 49.5433 64.3105C49.5433 67.6723 47.6193 70.5898 44.7989 72.0522V85.3364C44.7989 87.569 42.9472 89.3958 40.6843 89.3958C38.4213 89.3958 36.5696 87.569 36.5696 85.3364V72.0522C33.7492 70.5901 31.8252 67.6723 31.8252 64.3105C31.8252 59.4832 35.7913 55.5703 40.6839 55.5703Z" fill="white"/>
<path fill-rule="evenodd" clip-rule="evenodd" d="M64.1156 84.5625H102.623C109.751 84.5625 115.584 90.3799 115.584 97.4897C115.584 104.6 109.751 110.417 102.623 110.417H75.5495L67.6573 119.999V110.417H64.1156C56.9868 110.417 51.1543 104.6 51.1543 97.4897C51.1543 90.3796 56.9868 84.5625 64.1156 84.5625Z" fill="#2C2C2C"/>
<path fill-rule="evenodd" clip-rule="evenodd" d="M63.4409 91.9026C63.4409 91.4249 63.6289 90.9668 63.9636 90.6291C64.2982 90.2913 64.7521 90.1016 65.2253 90.1016C65.6986 90.1016 66.1525 90.2913 66.4871 90.6291C66.8217 90.9668 67.0097 91.4249 67.0097 91.9026V93.6355L68.4959 92.7694C68.9042 92.5354 69.3878 92.474 69.8409 92.5988C70.2939 92.7236 70.6796 93.0243 70.9136 93.4353C71.1476 93.8463 71.2109 94.334 71.0896 94.7919C70.9684 95.2499 70.6724 95.6407 70.2665 95.879L68.7788 96.7459L70.2665 97.6127C70.6724 97.851 70.9684 98.2418 71.0896 98.6998C71.2109 99.1577 71.1476 99.6454 70.9136 100.056C70.6796 100.467 70.2939 100.768 69.8409 100.893C69.3878 101.018 68.9042 100.956 68.4959 100.722L67.0097 99.8563V101.589C67.0097 102.067 66.8217 102.525 66.4871 102.863C66.1525 103.2 65.6986 103.39 65.2253 103.39C64.7521 103.39 64.2982 103.2 63.9636 102.863C63.6289 102.525 63.4409 102.067 63.4409 101.589V99.8563L61.9548 100.722C61.5464 100.956 61.0629 101.018 60.6098 100.893C60.1568 100.768 59.7711 100.467 59.5371 100.056C59.3031 99.6454 59.2398 99.1577 59.361 98.6998C59.4823 98.2418 59.7782 97.851 60.1842 97.6127L61.6719 96.7459L60.1842 95.879C59.7782 95.6407 59.4823 95.2499 59.361 94.7919C59.2398 94.334 59.3031 93.8463 59.5371 93.4353C59.7711 93.0243 60.1568 92.7236 60.6098 92.5988C61.0629 92.474 61.5464 92.5354 61.9548 92.7694L63.4409 93.6355V91.9026Z" fill="white"/>
<path fill-rule="evenodd" clip-rule="evenodd" d="M81.9556 91.9026C81.9556 91.4249 82.1436 90.9668 82.4782 90.6291C82.8129 90.2913 83.2667 90.1016 83.74 90.1016C84.2132 90.1016 84.6671 90.2913 85.0017 90.6291C85.3364 90.9668 85.5244 91.4249 85.5244 91.9026V93.6355L87.0105 92.7694C87.4189 92.5354 87.9025 92.474 88.3555 92.5988C88.8086 92.7236 89.1943 93.0243 89.4283 93.4353C89.6623 93.8463 89.7255 94.334 89.6043 94.7919C89.483 95.2499 89.1871 95.6407 88.7811 95.879L87.2935 96.7459L88.7811 97.6127C89.1871 97.851 89.483 98.2418 89.6043 98.6998C89.7255 99.1577 89.6623 99.6454 89.4283 100.056C89.1943 100.467 88.8086 100.768 88.3555 100.893C87.9025 101.018 87.4189 100.956 87.0105 100.722L85.5244 99.8563V101.589C85.5244 102.067 85.3364 102.525 85.0017 102.863C84.6671 103.2 84.2132 103.39 83.74 103.39C83.2667 103.39 82.8129 103.2 82.4782 102.863C82.1436 102.525 81.9556 102.067 81.9556 101.589V99.8563L80.4695 100.722C80.0611 100.956 79.5775 101.018 79.1245 100.893C78.6714 100.768 78.2857 100.467 78.0517 100.056C77.8177 99.6454 77.7544 99.1577 77.8757 98.6998C77.9969 98.2418 78.2929 97.851 78.6988 97.6127L80.1865 96.7459L78.6988 95.879C78.2929 95.6407 77.9969 95.2499 77.8757 94.7919C77.7544 94.334 77.8177 93.8463 78.0517 93.4353C78.2857 93.0243 78.6714 92.7236 79.1245 92.5988C79.5775 92.474 80.0611 92.5354 80.4695 92.7694L81.9556 93.6355V91.9026Z" fill="white"/>
<path fill-rule="evenodd" clip-rule="evenodd" d="M100.47 91.9026C100.47 91.4249 100.658 90.9668 100.993 90.6291C101.328 90.2913 101.781 90.1016 102.255 90.1016C102.728 90.1016 103.182 90.2913 103.516 90.6291C103.851 90.9668 104.039 91.4249 104.039 91.9026V93.6355L105.525 92.7694C105.934 92.5354 106.417 92.474 106.87 92.5988C107.323 92.7236 107.709 93.0243 107.943 93.4353C108.177 93.8463 108.24 94.334 108.119 94.7919C107.998 95.2499 107.702 95.6407 107.296 95.879L105.808 96.7459L107.296 97.6127C107.702 97.851 107.998 98.2418 108.119 98.6998C108.24 99.1577 108.177 99.6454 107.943 100.056C107.709 100.467 107.323 100.768 106.87 100.893C106.417 101.018 105.934 100.956 105.525 100.722L104.039 99.8563V101.589C104.039 102.067 103.851 102.525 103.516 102.863C103.182 103.2 102.728 103.39 102.255 103.39C101.781 103.39 101.328 103.2 100.993 102.863C100.658 102.525 100.47 102.067 100.47 101.589V99.8563L98.9841 100.722C98.5757 100.956 98.0922 101.018 97.6391 100.893C97.1861 100.768 96.8004 100.467 96.5664 100.056C96.3324 99.6454 96.2691 99.1577 96.3903 98.6998C96.5116 98.2418 96.8075 97.851 97.2135 97.6127L98.7012 96.7459L97.2135 95.879C96.8075 95.6407 96.5116 95.2499 96.3903 94.7919C96.2691 94.334 96.3324 93.8463 96.5664 93.4353C96.8004 93.0243 97.1861 92.7236 97.6391 92.5988C98.0922 92.474 98.5757 92.5354 98.9841 92.7694L100.47 93.6355V91.9026Z" fill="white"/>
<defs>
<filter id="filter0_i_90_5821" x="13.3018" y="0" width="53.96" height="40.2676" filterUnits="userSpaceOnUse" color-interpolation-filters="sRGB">
<feFlood flood-opacity="0" result="BackgroundImageFix"/>
<feBlend mode="normal" in="SourceGraphic" in2="BackgroundImageFix" result="shape"/>
<feColorMatrix in="SourceAlpha" type="matrix" values="0 0 0 0 0 0 0 0 0 0 0 0 0 0 0 0 0 0 127 0" result="hardAlpha"/>
<feOffset/>
<feGaussianBlur stdDeviation="2.63325"/>
<feComposite in2="hardAlpha" operator="arithmetic" k2="-1" k3="1"/>
<feColorMatrix type="matrix" values="0 0 0 0 0 0 0 0 0 0 0 0 0 0 0 0 0 0 0.16 0"/>
<feBlend mode="normal" in2="shape" result="effect1_innerShadow_90_5821"/>
</filter>
<filter id="filter1_i_90_5821" x="0.416016" y="40.2676" width="79.7314" height="64.4297" filterUnits="userSpaceOnUse" color-interpolation-filters="sRGB">
<feFlood flood-opacity="0" result="BackgroundImageFix"/>
<feBlend mode="normal" in="SourceGraphic" in2="BackgroundImageFix" result="shape"/>
<feColorMatrix in="SourceAlpha" type="matrix" values="0 0 0 0 0 0 0 0 0 0 0 0 0 0 0 0 0 0 127 0" result="hardAlpha"/>
<feOffset/>
<feGaussianBlur stdDeviation="2.63325"/>
<feComposite in2="hardAlpha" operator="arithmetic" k2="-1" k3="1"/>
<feColorMatrix type="matrix" values="0 0 0 0 0 0 0 0 0 0 0 0 0 0 0 0 0 0 0.16 0"/>
<feBlend mode="normal" in2="shape" result="effect1_innerShadow_90_5821"/>
</filter>
</defs>
</svg>
