<svg width="100" height="130" viewBox="0 0 100 130" fill="none" xmlns="http://www.w3.org/2000/svg">
<g filter="url(#filter0_i_2_761)">
<path fill-rule="evenodd" clip-rule="evenodd" d="M49.9998 0C68.4249 0 83.5 15.0517 83.5 33.4481V50H68.7648V33.4481C68.7648 23.1721 60.2918 14.7123 49.9998 14.7123C39.7077 14.7123 31.2353 23.1726 31.2353 33.4481V50H16.5V33.4481C16.5 15.0517 31.5751 0 49.9998 0Z" fill="#EDEFFD"/>
</g>
<g filter="url(#filter1_i_2_761)">
<path d="M90.3816 50H9.61838C4.58244 50 0.5 54.0878 0.5 59.1304V120.87C0.5 125.912 4.58244 130 9.61838 130H90.3816C95.4176 130 99.5 125.912 99.5 120.87V59.1304C99.5 54.0878 95.4176 50 90.3816 50Z" fill="#C28E5C"/>
</g>
<path fill-rule="evenodd" clip-rule="evenodd" d="M47.4995 69C53.5749 69 58.5 73.859 58.5 79.8524C58.5 84.0266 56.111 87.6491 52.609 89.4651V105.96C52.609 108.732 50.3098 111 47.5 111C44.6902 111 42.391 108.732 42.391 105.96V89.4651C38.8889 87.6496 36.5 84.0266 36.5 79.8524C36.5 73.8585 41.4246 69 47.4995 69Z" fill="#CEA57D"/>
<path fill-rule="evenodd" clip-rule="evenodd" d="M50.4995 69C56.5749 69 61.5 73.859 61.5 79.8524C61.5 84.0266 59.111 87.6491 55.609 89.4651V105.96C55.609 108.732 53.3098 111 50.5 111C47.6902 111 45.391 108.732 45.391 105.96V89.4651C41.8889 87.6496 39.5 84.0266 39.5 79.8524C39.5 73.8585 44.4246 69 50.4995 69Z" fill="white"/>
<defs>
<filter id="filter0_i_2_761" x="16.5" y="0" width="67" height="50" filterUnits="userSpaceOnUse" color-interpolation-filters="sRGB">
<feFlood flood-opacity="0" result="BackgroundImageFix"/>
<feBlend mode="normal" in="SourceGraphic" in2="BackgroundImageFix" result="shape"/>
<feColorMatrix in="SourceAlpha" type="matrix" values="0 0 0 0 0 0 0 0 0 0 0 0 0 0 0 0 0 0 127 0" result="hardAlpha"/>
<feOffset/>
<feGaussianBlur stdDeviation="3.26962"/>
<feComposite in2="hardAlpha" operator="arithmetic" k2="-1" k3="1"/>
<feColorMatrix type="matrix" values="0 0 0 0 0 0 0 0 0 0 0 0 0 0 0 0 0 0 0.16 0"/>
<feBlend mode="normal" in2="shape" result="effect1_innerShadow_2_761"/>
</filter>
<filter id="filter1_i_2_761" x="0.5" y="50" width="99" height="80" filterUnits="userSpaceOnUse" color-interpolation-filters="sRGB">
<feFlood flood-opacity="0" result="BackgroundImageFix"/>
<feBlend mode="normal" in="SourceGraphic" in2="BackgroundImageFix" result="shape"/>
<feColorMatrix in="SourceAlpha" type="matrix" values="0 0 0 0 0 0 0 0 0 0 0 0 0 0 0 0 0 0 127 0" result="hardAlpha"/>
<feOffset/>
<feGaussianBlur stdDeviation="3.26962"/>
<feComposite in2="hardAlpha" operator="arithmetic" k2="-1" k3="1"/>
<feColorMatrix type="matrix" values="0 0 0 0 0 0 0 0 0 0 0 0 0 0 0 0 0 0 0.16 0"/>
<feBlend mode="normal" in2="shape" result="effect1_innerShadow_2_761"/>
</filter>
</defs>
</svg>
