<svg width="150" height="149" viewBox="0 0 150 149" fill="none" xmlns="http://www.w3.org/2000/svg">
<g clip-path="url(#clip0_1_3730)">
<path fill-rule="evenodd" clip-rule="evenodd" d="M41.9482 0H107.212C110.791 0.00898055 114.222 1.43427 116.753 3.96444C119.285 6.4946 120.712 9.92394 120.723 13.5031V135.497C120.71 139.076 119.283 142.504 116.752 145.034C114.22 147.564 110.791 148.99 107.212 149H41.9482C38.3695 148.99 34.9402 147.564 32.4089 145.034C29.8776 142.504 28.4499 139.076 28.4375 135.497V13.5031C28.4485 9.92394 29.8757 6.4946 32.4073 3.96444C34.9389 1.43427 38.369 0.00898055 41.9482 0Z" fill="#E3CBB4"/>
<path fill-rule="evenodd" clip-rule="evenodd" d="M41.9482 0H107.212C110.791 0.00898055 114.222 1.43427 116.753 3.96444C119.285 6.49461 120.712 9.92394 120.723 13.5031V19.9651H28.4375V13.5031C28.4485 9.92394 29.8757 6.49461 32.4073 3.96444C34.9389 1.43427 38.369 0.00898055 41.9482 0ZM41.9482 149H107.212C110.791 148.99 114.22 147.564 116.752 145.034C119.283 142.504 120.71 139.076 120.723 135.497V129.026H28.4375V135.497C28.4499 139.076 29.8776 142.504 32.4089 145.034C34.9402 147.564 38.3694 148.99 41.9482 149Z" fill="#8A6541"/>
<path d="M68.2477 12.0773C67.6919 12.0773 67.159 11.8566 66.766 11.4636C66.3731 11.0707 66.1523 10.5377 66.1523 9.98203C66.1523 9.42632 66.3731 8.89337 66.766 8.50042C67.159 8.10747 67.6919 7.88672 68.2477 7.88672H80.91C81.4657 7.88672 81.9987 8.10747 82.3916 8.50042C82.7846 8.89337 83.0053 9.42632 83.0053 9.98203C83.0053 10.5377 82.7846 11.0707 82.3916 11.4636C81.9987 11.8566 81.4657 12.0773 80.91 12.0773H68.2477ZM68.2477 141.114C67.6919 141.114 67.159 140.893 66.766 140.5C66.3731 140.107 66.1523 139.574 66.1523 139.018C66.1523 138.463 66.3731 137.93 66.766 137.537C67.159 137.144 67.6919 136.923 68.2477 136.923H80.91C81.4657 136.923 81.9987 137.144 82.3916 137.537C82.7846 137.93 83.0053 138.463 83.0053 139.018C83.0053 139.574 82.7846 140.107 82.3916 140.5C81.9987 140.893 81.4657 141.114 80.91 141.114H68.2477Z" fill="#EAF6FF"/>
<path fill-rule="evenodd" clip-rule="evenodd" d="M9.97399 45.0352H78.0961C80.2324 45.0419 82.2791 45.8942 83.7889 47.4056C85.2987 48.917 86.1487 50.9646 86.1532 53.1009V68.2826C86.1487 70.4189 85.2987 72.4666 83.7889 73.9779C82.2791 75.4893 80.2324 76.3415 78.0961 76.3481H66.4086V86.8829L52.0499 76.3481H9.97399C7.83685 76.3417 5.78907 75.4899 4.27784 73.9787C2.76662 72.4675 1.91473 70.4198 1.9082 68.2826V53.1009C1.91465 50.9637 2.76651 48.9159 4.27774 47.4047C5.78897 45.8935 7.8368 45.0416 9.97399 45.0352Z" fill="#FFBA57"/>
<path d="M19.3795 53.568C19.3795 53.0123 19.6003 52.4793 19.9932 52.0864C20.3862 51.6934 20.9191 51.4727 21.4748 51.4727C22.0305 51.4727 22.5635 51.6934 22.9564 52.0864C23.3494 52.4793 23.5701 53.0123 23.5701 53.568V57.0791L26.6066 55.3237C26.8439 55.1852 27.1063 55.0951 27.3786 55.0584C27.6509 55.0217 27.9277 55.0393 28.1932 55.11C28.4587 55.1807 28.7076 55.3033 28.9256 55.4706C29.1435 55.6379 29.3262 55.8466 29.4632 56.0848C29.6002 56.3229 29.6887 56.5859 29.7237 56.8584C29.7587 57.1309 29.7394 57.4076 29.6671 57.6727C29.5947 57.9377 29.4706 58.1859 29.302 58.4028C29.1333 58.6197 28.9235 58.8011 28.6844 58.9366L25.6483 60.6923L28.6844 62.4477C28.9217 62.5842 29.1297 62.7661 29.2966 62.983C29.4635 63.1999 29.5861 63.4475 29.6573 63.7117C29.7285 63.976 29.747 64.2517 29.7117 64.5231C29.6763 64.7944 29.5879 65.0562 29.4514 65.2934C29.3149 65.5306 29.133 65.7386 28.9162 65.9056C28.6993 66.0725 28.4517 66.1951 28.1874 66.2663C27.9232 66.3375 27.6475 66.356 27.3761 66.3206C27.1047 66.2853 26.8429 66.1969 26.6057 66.0604L23.5693 64.3143V67.8173C23.5693 68.373 23.3485 68.9059 22.9556 69.2989C22.5626 69.6918 22.0297 69.9126 21.474 69.9126C20.9182 69.9126 20.3853 69.6918 19.9923 69.2989C19.5994 68.9059 19.3786 68.373 19.3786 67.8173V64.3143L16.3425 66.0604C16.1052 66.1968 15.8434 66.2852 15.572 66.3205C15.3006 66.3557 15.0249 66.3372 14.7607 66.2659C14.4965 66.1946 14.2489 66.072 14.032 65.905C13.8152 65.738 13.6334 65.5299 13.4969 65.2927C13.3605 65.0554 13.2721 64.7937 13.2369 64.5223C13.2016 64.2508 13.2202 63.9752 13.2914 63.7109C13.3627 63.4467 13.4854 63.1991 13.6523 62.9822C13.8193 62.7654 14.0274 62.5836 14.2646 62.4471L17.3008 60.6917L14.2652 58.9366C14.0262 58.8011 13.8163 58.6197 13.6477 58.4028C13.479 58.1859 13.355 57.9377 13.2826 57.6727C13.2102 57.4076 13.191 57.1309 13.2259 56.8584C13.2609 56.5859 13.3495 56.3229 13.4864 56.0848C13.6234 55.8466 13.8061 55.6379 14.0241 55.4706C14.242 55.3033 14.4909 55.1807 14.7564 55.11C15.0219 55.0393 15.2988 55.0217 15.5711 55.0584C15.8434 55.0951 16.1057 55.1852 16.3431 55.3237L19.3792 57.0791L19.3795 53.568ZM64.5003 53.568C64.5003 53.2928 64.5545 53.0203 64.6598 52.7661C64.7651 52.5119 64.9195 52.2809 65.114 52.0864C65.3086 51.8918 65.5396 51.7375 65.7938 51.6322C66.048 51.5269 66.3205 51.4727 66.5956 51.4727C66.8708 51.4727 67.1433 51.5269 67.3975 51.6322C67.6517 51.7375 67.8827 51.8918 68.0772 52.0864C68.2718 52.2809 68.4261 52.5119 68.5314 52.7661C68.6367 53.0203 68.6909 53.2928 68.6909 53.568V57.0791L71.7271 55.3237C72.2062 55.0481 72.7752 54.9741 73.3088 55.118C73.8425 55.262 74.2971 55.612 74.5727 56.0911C74.8482 56.5702 74.9222 57.1391 74.7783 57.6728C74.6344 58.2064 74.2844 58.661 73.8053 58.9366L70.7604 60.6923L73.8053 62.4477C74.2769 62.7272 74.6195 63.1812 74.7588 63.7114C74.898 64.2416 74.8228 64.8054 74.5494 65.2805C74.2759 65.7556 73.8263 66.1039 73.2979 66.2499C72.7695 66.3959 72.2048 66.3278 71.7262 66.0604L68.6901 64.3143V67.8173C68.6901 68.373 68.4693 68.9059 68.0764 69.2989C67.6834 69.6918 67.1505 69.9126 66.5948 69.9126C66.0391 69.9126 65.5061 69.6918 65.1132 69.2989C64.7202 68.9059 64.4995 68.373 64.4995 67.8173V64.3143L61.463 66.0604C61.2257 66.1968 60.9639 66.2852 60.6925 66.3205C60.4211 66.3557 60.1455 66.3372 59.8812 66.2659C59.617 66.1946 59.3694 66.072 59.1525 65.905C58.9357 65.738 58.7539 65.5299 58.6174 65.2927C58.481 65.0554 58.3926 64.7937 58.3574 64.5223C58.3221 64.2508 58.3407 63.9752 58.412 63.7109C58.4832 63.4467 58.6059 63.1991 58.7729 62.9822C58.9398 62.7654 59.1479 62.5836 59.3851 62.4471L62.4216 60.6917L59.3851 58.936C59.1461 58.8005 58.9363 58.6191 58.7676 58.4022C58.599 58.1853 58.4749 57.9372 58.4025 57.6721C58.3301 57.4071 58.3109 57.1303 58.3459 56.8578C58.3809 56.5853 58.4694 56.3224 58.6064 56.0842C58.7433 55.846 58.9261 55.6373 59.144 55.47C59.362 55.3027 59.6109 55.1802 59.8764 55.1094C60.1419 55.0387 60.4187 55.0211 60.691 55.0578C60.9633 55.0945 61.2257 55.1846 61.463 55.3231L64.4995 57.0785L64.5003 53.568ZM41.9399 53.568C41.9399 53.0123 42.1607 52.4793 42.5536 52.0864C42.9466 51.6934 43.4795 51.4727 44.0352 51.4727C44.5909 51.4727 45.1239 51.6934 45.5168 52.0864C45.9098 52.4793 46.1305 53.0123 46.1305 53.568V57.0791L49.167 55.3237C49.4043 55.1852 49.6667 55.0951 49.939 55.0584C50.2113 55.0217 50.4881 55.0393 50.7536 55.11C51.0191 55.1807 51.268 55.3033 51.486 55.4706C51.7039 55.6379 51.8866 55.8466 52.0236 56.0848C52.1606 56.3229 52.2491 56.5859 52.2841 56.8584C52.3191 57.1309 52.2998 57.4076 52.2275 57.6727C52.1551 57.9377 52.031 58.1859 51.8624 58.4028C51.6937 58.6197 51.4839 58.8011 51.2449 58.9366L48.2 60.6923L51.2449 62.4477C51.4821 62.5842 51.6901 62.7661 51.857 62.983C52.0239 63.1999 52.1465 63.4475 52.2177 63.7117C52.2889 63.976 52.3074 64.2517 52.2721 64.5231C52.2367 64.7944 52.1483 65.0562 52.0118 65.2934C51.8753 65.5306 51.6935 65.7386 51.4766 65.9056C51.2597 66.0725 51.0121 66.1951 50.7478 66.2663C50.4836 66.3375 50.2079 66.356 49.9365 66.3206C49.6651 66.2853 49.4033 66.1969 49.1661 66.0604L46.1297 64.3143V67.8173C46.1297 68.373 45.9089 68.9059 45.516 69.2989C45.123 69.6918 44.5901 69.9126 44.0344 69.9126C43.4786 69.9126 42.9457 69.6918 42.5527 69.2989C42.1598 68.9059 41.939 68.373 41.939 67.8173V64.3143L38.9029 66.0604C38.6655 66.2005 38.4026 66.2922 38.1295 66.33C37.8565 66.3678 37.5786 66.3511 37.312 66.2808C37.0454 66.2106 36.7955 66.0881 36.5766 65.9205C36.3576 65.7529 36.1742 65.5436 36.0367 65.3046C35.8993 65.0656 35.8106 64.8018 35.7758 64.5283C35.7411 64.2548 35.7609 63.9771 35.8342 63.7114C35.9075 63.4456 36.0328 63.197 36.2028 62.98C36.3728 62.763 36.5842 62.5819 36.8247 62.4471L39.8612 60.6917L36.8247 58.936C36.3456 58.6605 35.9956 58.2058 35.8517 57.6722C35.7078 57.1386 35.7817 56.5696 36.0573 56.0905C36.3329 55.6114 36.7875 55.2614 37.3212 55.1175C37.8548 54.9735 38.4238 55.0475 38.9029 55.3231L41.939 57.0785L41.9399 53.568Z" fill="#3A6584"/>
<path fill-rule="evenodd" clip-rule="evenodd" d="M148.093 87.2542C148.094 92.6685 146.489 97.9615 143.481 102.464C140.474 106.966 136.198 110.475 131.196 112.547C126.194 114.62 120.69 115.162 115.38 114.106C110.069 113.05 105.192 110.443 101.363 106.614C97.5346 102.786 94.9275 97.9077 93.8715 92.5974C92.8154 87.2871 93.3579 81.7828 95.4303 76.7808C97.5027 71.7788 101.012 67.5037 105.514 64.4962C110.016 61.4887 115.309 59.8839 120.724 59.8848C124.318 59.8844 127.877 60.5921 131.198 61.9674C134.519 63.3427 137.536 65.3587 140.077 67.9003C142.619 70.4418 144.635 73.4592 146.01 76.7799C147.386 80.1007 148.093 83.6599 148.093 87.2542Z" fill="#593700"/>
<path fill-rule="evenodd" clip-rule="evenodd" d="M140.967 87.2547C140.966 91.2595 139.777 95.1741 137.551 98.5035C135.326 101.833 132.163 104.427 128.462 105.959C124.762 107.491 120.69 107.891 116.763 107.108C112.835 106.326 109.227 104.397 106.396 101.564C103.565 98.7314 101.637 95.123 100.857 91.1949C100.077 87.2668 100.478 83.1955 102.012 79.4958C103.545 75.7962 106.141 72.6343 109.472 70.4101C112.802 68.1859 116.717 66.9991 120.722 67C123.382 67.0007 126.015 67.5251 128.471 68.5433C130.928 69.5616 133.16 71.0537 135.04 72.9345C136.919 74.8153 138.411 77.048 139.428 79.5051C140.445 81.9621 140.968 84.5955 140.967 87.2547Z" fill="#FFE6EB"/>
<path d="M118.629 73.1012C118.629 72.5455 118.85 72.0125 119.243 71.6196C119.636 71.2266 120.169 71.0059 120.724 71.0059C121.28 71.0059 121.813 71.2266 122.206 71.6196C122.599 72.0125 122.82 72.5455 122.82 73.1012V86.0514L129.02 89.639C129.257 89.776 129.465 89.9584 129.632 90.1758C129.798 90.3931 129.921 90.6412 129.991 90.9058C130.062 91.1705 130.08 91.4464 130.045 91.7181C130.009 91.9897 129.92 92.2515 129.783 92.4888C129.646 92.726 129.463 92.9339 129.246 93.1007C129.029 93.2674 128.781 93.3897 128.516 93.4606C128.251 93.5315 127.975 93.5495 127.704 93.5137C127.432 93.4779 127.17 93.389 126.933 93.252L119.808 89.1388C119.454 88.9671 119.157 88.6995 118.948 88.3666C118.74 88.0336 118.629 87.6487 118.629 87.2559V73.1012Z" fill="#3A6584"/>
<path fill-rule="evenodd" clip-rule="evenodd" d="M98.6895 0C102.268 0.00906587 105.697 1.43462 108.228 3.96499C110.758 6.49535 112.184 9.92466 112.193 13.5031V19.9651H120.725V13.5031C120.714 9.92374 119.287 6.49423 116.755 3.96403C114.223 1.43383 110.792 0.00867343 107.213 0L98.6895 0Z" fill="#6B4E33"/>
<path fill-rule="evenodd" clip-rule="evenodd" d="M112.193 19.9668V61.2453C114.947 60.3433 117.827 59.8852 120.725 59.8883V19.9668H112.193ZM120.724 114.627C117.826 114.629 114.947 114.174 112.191 113.278V129.028H120.724V114.627Z" fill="#CEA57D"/>
<path fill-rule="evenodd" clip-rule="evenodd" d="M120.724 129.027H112.193V135.498C112.182 139.076 110.756 142.504 108.226 145.034C105.696 147.564 102.267 148.99 98.6895 149.001H107.213C110.792 148.99 114.221 147.565 116.753 145.035C119.284 142.505 120.712 139.077 120.724 135.498L120.724 129.027Z" fill="#6B4E33"/>
<path fill-rule="evenodd" clip-rule="evenodd" d="M140.968 87.2542C140.969 91.424 139.684 95.4927 137.287 98.9049C134.89 102.317 131.499 104.907 127.576 106.32C123.965 110.042 119.37 112.663 114.328 113.877C118.087 114.779 121.995 114.875 125.794 114.158C129.593 113.441 133.197 111.927 136.369 109.717C139.541 107.506 142.208 104.649 144.196 101.333C146.184 98.0173 147.447 94.3179 147.901 90.4787C148.356 86.6394 147.992 82.7474 146.834 79.0589C145.676 75.3703 143.75 71.9689 141.182 69.0786C138.615 66.1883 135.464 63.8747 131.938 62.29C128.411 60.7053 124.589 59.8856 120.723 59.8848C118.57 59.8855 116.424 60.136 114.328 60.6312C119.373 61.8445 123.968 64.4689 127.576 68.1976C131.499 69.6092 134.89 72.1971 137.287 75.608C139.684 79.0189 140.969 83.0865 140.968 87.2554V87.2542Z" fill="#593700"/>
<path fill-rule="evenodd" clip-rule="evenodd" d="M127.578 106.322C131.5 104.909 134.89 102.32 137.287 98.9084C139.684 95.4971 140.969 91.4297 140.969 87.2607C140.969 83.0918 139.684 79.0244 137.287 75.6131C134.89 72.2019 131.5 69.6129 127.578 68.1992C132.533 73.3073 135.304 80.1442 135.304 87.2607C135.304 94.3773 132.533 101.214 127.578 106.322Z" fill="#E6CFD4"/>
<path fill-rule="evenodd" clip-rule="evenodd" d="M72.2617 45.0352C74.3987 45.0418 76.4463 45.8938 77.9574 47.405C79.4684 48.9162 80.3202 50.9639 80.3266 53.1009V68.2826C80.3201 70.4197 79.4682 72.4674 77.9571 73.9786C76.4459 75.4898 74.3982 76.3416 72.2611 76.3481H78.0963C80.2325 76.3415 82.2793 75.4893 83.7891 73.9779C85.2989 72.4666 86.1489 70.4189 86.1533 68.2826V53.1009C86.1489 50.9646 85.2989 48.917 83.7891 47.4056C82.2793 45.8942 80.2326 45.0419 78.0963 45.0352H72.2617ZM66.4094 76.3484H60.5742V82.6079L66.4094 86.8823V76.3484Z" fill="#EB9C2C"/>
</g>
<defs>
<clipPath id="clip0_1_3730">
<rect width="149" height="149" fill="white" transform="translate(0.5)"/>
</clipPath>
</defs>
</svg>
