<svg width="20" height="20" viewBox="0 0 20 20" fill="none" xmlns="http://www.w3.org/2000/svg">
<path d="M11.2526 5.83333C11.4827 5.83333 11.6693 5.64679 11.6693 5.41667C11.6693 5.18655 11.4827 5 11.2526 5C11.0225 5 10.8359 5.18655 10.8359 5.41667C10.8359 5.64679 11.0225 5.83333 11.2526 5.83333Z" fill="#2C2C2C" stroke="#2C2C2C" stroke-width="1.66667" stroke-linecap="round" stroke-linejoin="round"/>
<path d="M14.5807 9.16732C14.8108 9.16732 14.9974 8.98077 14.9974 8.75065C14.9974 8.52053 14.8108 8.33398 14.5807 8.33398C14.3506 8.33398 14.1641 8.52053 14.1641 8.75065C14.1641 8.98077 14.3506 9.16732 14.5807 9.16732Z" fill="#2C2C2C" stroke="#2C2C2C" stroke-width="1.66667" stroke-linecap="round" stroke-linejoin="round"/>
<path d="M7.08073 6.66732C7.31085 6.66732 7.4974 6.48077 7.4974 6.25065C7.4974 6.02053 7.31085 5.83398 7.08073 5.83398C6.85061 5.83398 6.66406 6.02053 6.66406 6.25065C6.66406 6.48077 6.85061 6.66732 7.08073 6.66732Z" fill="#2C2C2C" stroke="#2C2C2C" stroke-width="1.66667" stroke-linecap="round" stroke-linejoin="round"/>
<path d="M5.41667 10.8333C5.64679 10.8333 5.83333 10.6468 5.83333 10.4167C5.83333 10.1865 5.64679 10 5.41667 10C5.18655 10 5 10.1865 5 10.4167C5 10.6468 5.18655 10.8333 5.41667 10.8333Z" fill="#2C2C2C" stroke="#2C2C2C" stroke-width="1.66667" stroke-linecap="round" stroke-linejoin="round"/>
<path d="M9.9974 1.66602C5.41406 1.66602 1.66406 5.41602 1.66406 9.99935C1.66406 14.5827 5.41406 18.3327 9.9974 18.3327C10.7691 18.3327 11.3707 17.711 11.3707 16.926C11.3707 16.5618 11.2207 16.2302 11.0066 15.9885C10.7649 15.7477 10.6416 15.4452 10.6416 15.051C10.6384 14.8676 10.6722 14.6854 10.7409 14.5154C10.8097 14.3453 10.9119 14.1908 11.0416 14.0611C11.1714 13.9314 11.3258 13.8291 11.4959 13.7604C11.666 13.6917 11.8482 13.6579 12.0316 13.661H13.6949C16.2374 13.661 18.3241 11.5752 18.3241 9.03268C18.3016 5.00935 14.5482 1.66602 9.9974 1.66602Z" stroke="#2C2C2C" stroke-width="1.66667" stroke-linecap="round" stroke-linejoin="round"/>
</svg>
