<svg width="32" height="33" viewBox="0 0 32 33" fill="none" xmlns="http://www.w3.org/2000/svg">
<g clip-path="url(#clip0_40_791)">
<path d="M18.9242 12.7275L30.3446 14.9961C31.265 15.1905 31.8872 15.9683 31.8872 16.8887V30.1109C31.8872 31.1868 31.0187 32.0553 29.9428 32.0553H18.2761C18.6391 32.0553 18.9242 31.7701 18.9242 31.4072V30.759H29.9428C30.2928 30.759 30.5909 30.4738 30.5909 30.1109V16.8887C30.5909 16.5905 30.3835 16.3183 30.0854 16.2535L18.9242 14.0498V12.7275Z" fill="#C28E5C"/>
<path d="M26.0549 19.0921C26.4178 19.0921 26.703 19.3773 26.703 19.7403C26.703 20.1032 26.4178 20.3884 26.0549 20.3884H23.4623C23.0993 20.3884 22.8141 20.1032 22.8141 19.7403C22.8141 19.3773 23.0993 19.0921 23.4623 19.0921H26.0549ZM26.0549 22.981C26.4178 22.981 26.703 23.2662 26.703 23.6292C26.703 23.9921 26.4178 24.2773 26.0549 24.2773H23.4623C23.0993 24.2773 22.8141 23.9921 22.8141 23.6292C22.8141 23.2662 23.0993 22.981 23.4623 22.981H26.0549ZM26.0549 26.8699C26.4178 26.8699 26.703 27.1551 26.703 27.5181C26.703 27.881 26.4178 28.1662 26.0549 28.1662H23.4623C23.0993 28.1662 22.8141 27.881 22.8141 27.5181C22.8141 27.1551 23.0993 26.8699 23.4623 26.8699H26.0549ZM18.9252 31.4069C18.9252 31.7699 18.64 32.0551 18.2771 32.0551C17.9141 32.0551 17.6289 31.7699 17.6289 31.4069V13.2588C17.6289 13.0643 17.7197 12.8829 17.8623 12.7532C18.0178 12.6366 18.2123 12.5847 18.4067 12.6236L18.9252 12.7273V30.7588V31.4069Z" fill="#C28E5C"/>
<path d="M17.6279 30.7591V31.4073C17.6279 31.7702 17.9131 32.0554 18.2761 32.0554H13.0909C13.4539 32.0554 13.7391 31.7702 13.7391 31.4073V30.7591H17.6279ZM14.3872 7.42578C14.7502 7.42578 15.0353 7.71097 15.0353 8.07393C15.0353 8.43689 14.7502 8.72208 14.3872 8.72208H11.7946C11.4316 8.72208 11.1465 8.43689 11.1465 8.07393C11.1465 7.71097 11.4316 7.42578 11.7946 7.42578H14.3872ZM15.0353 11.9628C15.0353 12.3258 14.7502 12.611 14.3872 12.611H11.7946C11.4316 12.611 11.1465 12.3258 11.1465 11.9628C11.1465 11.5999 11.4316 11.3147 11.7946 11.3147H14.3872C14.7502 11.3147 15.0353 11.5999 15.0353 11.9628ZM14.3872 15.2036C14.7502 15.2036 15.0353 15.4887 15.0353 15.8517C15.0353 16.2147 14.7502 16.4999 14.3872 16.4999H11.7946C11.4316 16.4999 11.1465 16.2147 11.1465 15.8517C11.1465 15.4887 11.4316 15.2036 11.7946 15.2036H14.3872ZM14.3872 19.0924C14.7502 19.0924 15.0353 19.3776 15.0353 19.7406C15.0353 20.1036 14.7502 20.3887 14.3872 20.3887H11.7946C11.4316 20.3887 11.1465 20.1036 11.1465 19.7406C11.1465 19.3776 11.4316 19.0924 11.7946 19.0924H14.3872ZM8.55387 19.7406C8.55387 20.1036 8.26868 20.3887 7.90572 20.3887H5.31313C4.95016 20.3887 4.66498 20.1036 4.66498 19.7406C4.66498 19.3776 4.95016 19.0924 5.31313 19.0924H7.90572C8.26868 19.0924 8.55387 19.3776 8.55387 19.7406ZM7.90572 7.42578C8.26868 7.42578 8.55387 7.71097 8.55387 8.07393C8.55387 8.43689 8.26868 8.72208 7.90572 8.72208H5.31313C4.95016 8.72208 4.66498 8.43689 4.66498 8.07393C4.66498 7.71097 4.95016 7.42578 5.31313 7.42578H7.90572ZM7.90572 11.3147C8.26868 11.3147 8.55387 11.5999 8.55387 11.9628C8.55387 12.3258 8.26868 12.611 7.90572 12.611H5.31313C4.95016 12.611 4.66498 12.3258 4.66498 11.9628C4.66498 11.5999 4.95016 11.3147 5.31313 11.3147H7.90572ZM7.90572 15.2036C8.26868 15.2036 8.55387 15.4887 8.55387 15.8517C8.55387 16.2147 8.26868 16.4999 7.90572 16.4999H5.31313C4.95016 16.4999 4.66498 16.2147 4.66498 15.8517C4.66498 15.4887 4.95016 15.2036 5.31313 15.2036H7.90572ZM12.4428 24.9258C12.4428 24.5628 12.1446 24.2776 11.7946 24.2776H7.90572C7.54276 24.2776 7.25757 24.5628 7.25757 24.9258V30.7591H5.96127V24.9258C5.96127 23.8499 6.82979 22.9813 7.90572 22.9813H11.7946C12.8705 22.9813 13.7391 23.8499 13.7391 24.9258V30.7591H12.4428V24.9258Z" fill="#C28E5C"/>
<path d="M7.25858 30.7593H13.7401V31.4074C13.7401 31.7704 13.4549 32.0556 13.0919 32.0556H6.61043C6.24747 32.0556 5.96228 31.7704 5.96228 31.4074V30.7593H7.25858Z" fill="#C28E5C"/>
<path d="M3.04461 1.20297L17.2909 3.36779C18.2372 3.52334 18.9242 4.32705 18.9242 5.28631V12.727L18.4057 12.6233C18.2113 12.5845 18.0168 12.6363 17.8613 12.753C17.7187 12.8826 17.6279 13.0641 17.6279 13.2585V5.28631C17.6279 4.96223 17.3946 4.69001 17.0835 4.63816L2.8372 2.48631C2.79831 2.47334 2.75943 2.47334 2.72054 2.47334C2.56498 2.47334 2.42239 2.52519 2.30572 2.6289C2.15017 2.75853 2.07239 2.92705 2.07239 3.12149V30.1104C2.07239 30.4733 2.37054 30.7585 2.72054 30.7585H5.96128V31.4067C5.96128 31.7696 6.24646 32.0548 6.60943 32.0548H2.72054C1.64461 32.0548 0.776093 31.1863 0.776093 30.1104V3.12149C0.776093 2.55112 1.02239 2.00668 1.46313 1.64371C1.90387 1.26779 2.47424 1.11223 3.04461 1.20297Z" fill="#C28E5C"/>
</g>
<defs>
<clipPath id="clip0_40_791">
<rect width="31.1111" height="31.1111" fill="white" transform="translate(0.777802 0.944336)"/>
</clipPath>
</defs>
</svg>
