<svg width="32" height="32" viewBox="0 0 32 32" fill="none" xmlns="http://www.w3.org/2000/svg">
<path d="M0.111145 0.444336V10.7742H10.441V0.444336H0.111145ZM8.01045 8.34364H2.5417V2.87489H8.01045V8.34364Z" fill="#C28E5C"/>
<path d="M4.06079 4.39399H6.49135V6.82454H4.06079V4.39399ZM20.8924 0.444336V10.7742H31.2223V0.444336H20.8924ZM28.7917 8.34364H23.3229V2.87489H28.7917V8.34364Z" fill="#C28E5C"/>
<path d="M24.842 4.39404H27.2726V6.8246H24.842V4.39404ZM0.111145 21.2256V31.5555H10.441V21.2256H0.111145ZM8.01045 29.1249H2.5417V23.6562H8.01045V29.1249Z" fill="#C28E5C"/>
<path d="M4.06078 25.1752H6.49134V27.6058H4.06078V25.1752ZM2.54169 12.4148H4.97224V14.8454H2.54169V12.4148ZM7.4028 17.2759V14.8454H4.97224V17.2759H7.34203V19.7065H9.77259V17.2759H7.4028ZM17.125 5.12316H19.5556V7.55371H17.125V5.12316ZM12.2639 2.87489H14.6945V7.55371H12.2639V2.87489ZM14.6945 0.444336H17.125V2.87489H14.6945V0.444336ZM14.6945 7.55371V9.98427H12.2639V12.4148H17.125V7.55371H14.6945ZM17.125 22.0155V19.6457H14.6945V14.8454H12.2639V19.7065H14.6945V22.0763H17.125V24.4461H21.9861V22.0155H17.125Z" fill="#C28E5C"/>
<path d="M17.125 12.415H19.5556V17.2762H17.125V12.415ZM28.7917 14.7848V12.415H24.3559V14.8456H21.9861V17.2762H24.4167V19.6459H31.2223V14.7848H28.7917ZM28.7917 17.2154H24.4167V14.8456H28.7917V17.2154ZM28.7917 22.0157H31.2223V26.8768H28.7917V22.0157ZM19.5556 17.2762H21.9861V19.7067H19.5556V17.2762ZM21.9861 24.4463H24.4167V26.8768H21.9861V24.4463ZM24.4167 22.0157H26.8473V24.4463H24.4167V22.0157ZM24.4167 26.8768V31.5557H26.8473V29.3074H28.7917V26.8768H24.4167ZM12.2639 22.0765H14.6945V26.6946H12.2639V22.0765ZM19.5556 29.1251V26.6946H14.6945V31.5557H17.125V29.1251H19.4948V31.5557H21.9254V29.1251H19.5556ZM7.40281 12.415H12.2639V14.8456H7.40281V12.415ZM0.111145 14.8456H2.5417V19.7067H0.111145V14.8456Z" fill="#C28E5C"/>
</svg>
