<svg width="120" height="120" viewBox="0 0 120 120" fill="none" xmlns="http://www.w3.org/2000/svg">
<g clip-path="url(#clip0_90_5982)">
<g filter="url(#filter0_d_90_5982)">
<path d="M119.986 43.4219V108.481C119.986 111.818 118.566 114.823 116.299 116.927C114.241 118.834 111.489 119.999 108.465 119.999H11.5188C8.49467 119.999 5.74265 118.834 3.68835 116.929C1.41984 114.823 0 111.818 0 108.481V43.4219H119.986Z" fill="#CEA57D"/>
<path d="M119.986 43.4219L73.8664 5.02013C65.8281 -1.67338 54.1579 -1.67338 46.1195 5.02013L0 43.4219H0.000937498L13.5937 54.7396L46.1195 81.8216C54.1588 88.517 65.829 88.517 73.8655 81.8216L106.394 54.7396L119.987 43.4217" fill="#8A6541"/>
<path d="M106.395 19.4576L106.8 54.6008L73.8657 81.823C65.8292 88.5184 54.159 88.5184 46.1197 81.823L13.2002 54.6008L13.5939 19.4576C13.5939 12.1013 19.5588 6.13672 26.9167 6.13672H93.0736C100.432 6.13672 106.395 12.1013 106.395 19.4576Z" fill="#F5ECE4"/>
<path d="M106.8 20.3064V50.4L73.9911 78.6079C65.8854 85.7974 54.1147 85.7974 46.0062 78.6079L13.2002 50.4V20.3064C13.2002 12.4059 19.2164 6 26.6377 6H93.3645C100.786 6 106.8 12.4059 106.8 20.3064Z" fill="#F9F4EF"/>
<path d="M86.9285 52.7117H33.0582C32.817 52.7118 32.5782 52.6643 32.3554 52.572C32.1325 52.4797 31.9301 52.3444 31.7595 52.1739C31.589 52.0034 31.4537 51.8009 31.3614 51.578C31.2691 51.3552 31.2216 51.1164 31.2217 50.8752C31.2218 50.3881 31.4153 49.9211 31.7597 49.5767C32.1041 49.2323 32.5712 49.0388 33.0582 49.0386H86.9285C87.4156 49.0388 87.8826 49.2323 88.227 49.5767C88.5714 49.9211 88.765 50.3881 88.7651 50.8752C88.7651 51.1164 88.7176 51.3552 88.6253 51.578C88.5331 51.8009 88.3978 52.0034 88.2272 52.1739C88.0567 52.3444 87.8542 52.4797 87.6314 52.572C87.4085 52.6643 87.1697 52.7118 86.9285 52.7117ZM86.9285 63.3786H33.0582C32.0439 63.3786 31.2217 62.5564 31.2217 61.542C31.2217 60.5277 32.0439 59.7055 33.0582 59.7055H86.9285C87.9431 59.7055 88.7651 60.5277 88.7651 61.542C88.7651 62.5564 87.9431 63.3786 86.9285 63.3786ZM86.9285 31.3801H33.0582C32.0439 31.3801 31.2217 30.558 31.2217 29.5436C31.2217 28.5292 32.0439 27.707 33.0582 27.707H86.9285C87.9431 27.707 88.7651 28.5292 88.7651 29.5436C88.7651 30.558 87.9431 31.3801 86.9285 31.3801ZM86.9285 42.0461H33.0582C32.0439 42.0461 31.2217 41.2239 31.2217 40.2095C31.2217 39.1951 32.0439 38.3729 33.0582 38.3729H86.9285C87.9431 38.3729 88.7651 39.1949 88.7651 40.2095C88.7651 41.2241 87.9431 42.0461 86.9285 42.0461Z" fill="#513C27"/>
<path d="M108.804 112.524C108.375 112.524 107.96 112.374 107.63 112.099L78.3454 87.7166C77.9714 87.4047 77.7364 86.9572 77.6922 86.4722C77.6479 85.9873 77.798 85.5046 78.1094 85.1302C78.7586 84.3509 79.9164 84.2448 80.6957 84.894L109.98 109.275C110.165 109.429 110.318 109.619 110.431 109.832C110.543 110.046 110.612 110.279 110.634 110.519C110.656 110.759 110.631 111.002 110.559 111.232C110.487 111.462 110.371 111.676 110.217 111.862C110.045 112.069 109.829 112.236 109.584 112.35C109.34 112.465 109.074 112.524 108.804 112.524Z" fill="#8A6541"/>
<path d="M12.3208 112.524C12.7497 112.524 13.1652 112.374 13.4945 112.099L42.7796 87.7166C43.1536 87.4047 43.3886 86.9572 43.4328 86.4722C43.4771 85.9873 43.327 85.5046 43.0156 85.1302C42.3664 84.3509 41.2086 84.2448 40.4293 84.894L11.1454 109.275C10.9599 109.429 10.8067 109.619 10.6944 109.832C10.5821 110.046 10.5129 110.279 10.4909 110.519C10.4689 110.759 10.4944 111.002 10.566 111.232C10.6376 111.462 10.7539 111.676 10.9082 111.862C11.0804 112.069 11.2964 112.236 11.5405 112.35C11.7847 112.465 12.0511 112.524 12.3208 112.524Z" fill="#8A6541"/>
</g>
</g>
<defs>
<filter id="filter0_d_90_5982" x="-8" y="-4.8" width="135.987" height="136" filterUnits="userSpaceOnUse" color-interpolation-filters="sRGB">
<feFlood flood-opacity="0" result="BackgroundImageFix"/>
<feColorMatrix in="SourceAlpha" type="matrix" values="0 0 0 0 0 0 0 0 0 0 0 0 0 0 0 0 0 0 127 0" result="hardAlpha"/>
<feOffset dy="3.2"/>
<feGaussianBlur stdDeviation="4"/>
<feComposite in2="hardAlpha" operator="out"/>
<feColorMatrix type="matrix" values="0 0 0 0 0 0 0 0 0 0 0 0 0 0 0 0 0 0 0.06 0"/>
<feBlend mode="normal" in2="BackgroundImageFix" result="effect1_dropShadow_90_5982"/>
<feBlend mode="normal" in="SourceGraphic" in2="effect1_dropShadow_90_5982" result="shape"/>
</filter>
<clipPath id="clip0_90_5982">
<rect width="120" height="120" fill="white"/>
</clipPath>
</defs>
</svg>
